<?xml version="1.0" encoding="utf-8"?>
<!-- Generator: Adobe Illustrator 23.0.1, SVG Export Plug-In . SVG Version: 6.00 Build 0)  -->
<svg version="1.1" id="Layer_1" xmlns="http://www.w3.org/2000/svg" xmlns:xlink="http://www.w3.org/1999/xlink" x="0px" y="0px"
	 viewBox="0 0 380.54 222.75" style="enable-background:new 0 0 380.54 222.75;" xml:space="preserve">
<style type="text/css">
	.st0{fill:#FFFFFF;}
</style>
<rect x="38.6" y="46.53" class="st0" width="286.5" height="137.67"/>
<polygon points="302.24,107.75 288.62,100.9 275.26,108.24 277.57,93.17 266.46,82.73 281.5,80.26 288,66.47 294.99,80.02 
	310.11,81.94 299.39,92.77 "/>
<polygon points="302.24,158.51 288.62,151.67 275.26,159 277.57,143.94 266.46,133.5 281.5,131.03 288,117.24 294.99,130.78 
	310.11,132.7 299.39,143.54 "/>
<polygon points="251.69,107.75 238.07,100.9 224.71,108.24 227.01,93.17 215.91,82.73 230.95,80.26 237.45,66.47 244.44,80.02 
	259.56,81.94 248.84,92.77 "/>
<polygon points="251.69,158.51 238.07,151.67 224.71,159 227.01,143.94 215.91,133.5 230.95,131.03 237.45,117.24 244.44,130.78 
	259.56,132.7 248.84,143.54 "/>
<polygon points="201.14,107.75 187.52,100.9 174.16,108.24 176.46,93.17 165.36,82.73 180.4,80.26 186.89,66.47 193.89,80.02 
	209.01,81.94 198.29,92.77 "/>
<polygon points="201.14,158.51 187.52,151.67 174.16,159 176.46,143.94 165.36,133.5 180.4,131.03 186.89,117.24 193.89,130.78 
	209.01,132.7 198.29,143.54 "/>
<polygon points="150.59,107.75 136.97,100.9 123.61,108.24 125.91,93.17 114.8,82.73 129.85,80.26 136.34,66.47 143.34,80.02 
	158.46,81.94 147.74,92.77 "/>
<polygon points="150.59,158.51 136.97,151.67 123.61,159 125.91,143.94 114.8,133.5 129.85,131.03 136.34,117.24 143.34,130.78 
	158.46,132.7 147.74,143.54 "/>
<polygon points="100.04,107.75 86.42,100.9 73.06,108.24 75.36,93.17 64.25,82.73 79.3,80.26 85.79,66.47 92.79,80.02 107.91,81.94 
	97.19,92.77 "/>
<polygon points="100.04,158.51 86.42,151.67 73.06,159 75.36,143.94 64.25,133.5 79.3,131.03 85.79,117.24 92.79,130.78 
	107.91,132.7 97.19,143.54 "/>
</svg>
