<?xml version="1.0" encoding="utf-8"?>
<!-- Generator: Adobe Illustrator 23.0.1, SVG Export Plug-In . SVG Version: 6.00 Build 0)  -->
<svg version="1.1" xmlns="http://www.w3.org/2000/svg" xmlns:xlink="http://www.w3.org/1999/xlink" x="0px" y="0px"
	 viewBox="0 0 507.59 269.17" style="enable-background:new 0 0 507.59 269.17;" xml:space="preserve">
<style type="text/css">
	.st0{clip-path:url(#SVGID_2_);fill:#C5C62F;}
	.st1{clip-path:url(#SVGID_2_);fill:#97CEE9;}
	.st2{clip-path:url(#SVGID_2_);fill:#E9B2BF;}
	.st3{clip-path:url(#SVGID_2_);fill:#E75F32;}
	.st4{clip-path:url(#SVGID_2_);fill:#F38C2E;}
	.st5{clip-path:url(#SVGID_2_);fill:#F3D659;}
	.st6{clip-path:url(#SVGID_2_);fill:#EBBCC7;}
	.st7{clip-path:url(#SVGID_2_);fill:#EC6544;}
	.st8{clip-path:url(#SVGID_2_);fill:#EF892D;}
	.st9{clip-path:url(#SVGID_2_);}
	.st10{clip-path:url(#SVGID_4_);fill:#7CC245;}
	.st11{clip-path:url(#SVGID_4_);fill:#EE4097;}
	.st12{clip-path:url(#SVGID_4_);fill:#ED3093;}
	.st13{clip-path:url(#SVGID_4_);fill:#8052A1;}
	.st14{clip-path:url(#SVGID_4_);fill:#794E9F;}
	.st15{clip-path:url(#SVGID_4_);fill:#8181BE;}
	.st16{clip-path:url(#SVGID_4_);fill:#ACA7D3;}
	.st17{fill:#4D4D4D;}
	.st18{fill:#FFFFFF;}
	.st19{fill:#F9CDE0;}
	.st20{fill:#97CEE9;}
	.st21{fill:#C5C62F;}
	.st22{fill:#E75F32;}
	.st23{fill:#F3D659;}
</style>
<g id="Layer_1">
</g>
<g id="Layer_2">
	<g>
		<defs>
			<rect id="SVGID_1_" x="19.51" y="20.22" width="467.56" height="222.09"/>
		</defs>
		<clipPath id="SVGID_2_">
			<use xlink:href="#SVGID_1_"  style="overflow:visible;"/>
		</clipPath>
		
			<rect x="265.18" y="223.19" transform="matrix(-0.7071 -0.7071 0.7071 -0.7071 496.8658 669.3076)" class="st0" width="243.75" height="17.12"/>
		
			<rect x="253.56" y="234.81" transform="matrix(-0.7071 -0.7071 0.7071 -0.7071 468.8134 680.9273)" class="st1" width="243.75" height="17.12"/>
		
			<rect x="241.94" y="246.43" transform="matrix(-0.7071 -0.7071 0.7071 -0.7071 440.7611 692.547)" class="st2" width="243.75" height="17.12"/>
		
			<rect x="230.32" y="258.05" transform="matrix(-0.7071 -0.7071 0.7071 -0.7071 412.7087 704.1666)" class="st3" width="243.75" height="17.12"/>
		
			<rect x="396.1" y="179.48" transform="matrix(-0.7071 -0.7071 0.7071 -0.7071 642.1891 642.0885)" class="st3" width="115.95" height="17.12"/>
		
			<rect x="384.48" y="191.1" transform="matrix(-0.7071 -0.7071 0.7071 -0.7071 614.1367 653.7081)" class="st4" width="115.95" height="17.12"/>
		
			<rect x="372.86" y="202.72" transform="matrix(-0.7071 -0.7071 0.7071 -0.7071 586.0844 665.3278)" class="st5" width="115.95" height="17.12"/>
		
			<rect x="361.78" y="212.08" transform="matrix(-0.7071 -0.7071 0.7071 -0.7071 559.3213 676.4135)" class="st2" width="115.95" height="20.57"/>
		
			<rect x="352.15" y="223.43" transform="matrix(-0.7071 -0.7071 0.7071 -0.7071 536.0848 686.0383)" class="st5" width="115.95" height="17.12"/>
		<circle class="st0" cx="22.13" cy="161.95" r="109.51"/>
		<circle class="st1" cx="22.13" cy="159.6" r="91.71"/>
		<circle class="st2" cx="22.13" cy="161.48" r="71.89"/>
		
			<rect x="-17.29" y="115.54" transform="matrix(-0.7071 -0.7071 0.7071 -0.7071 90.7803 285.8078)" class="st3" width="243.75" height="17.12"/>
		
			<rect x="-5.67" y="103.92" transform="matrix(-0.7071 -0.7071 0.7071 -0.7071 118.8327 274.1881)" class="st4" width="243.75" height="17.12"/>
		
			<rect x="322.01" y="96.41" transform="matrix(0.7071 -0.7071 0.7071 0.7071 55.7865 344.6189)" class="st3" width="243.75" height="17.12"/>
		
			<rect x="310.39" y="84.79" transform="matrix(0.7071 -0.7071 0.7071 0.7071 60.5995 332.9993)" class="st4" width="243.75" height="17.12"/>
		
			<rect x="5.95" y="92.3" transform="matrix(-0.7071 -0.7071 0.7071 -0.7071 146.8851 262.5685)" class="st1" width="243.75" height="17.12"/>
		
			<rect x="17.57" y="80.68" transform="matrix(-0.7071 -0.7071 0.7071 -0.7071 174.9374 250.9488)" class="st6" width="243.75" height="17.12"/>
		
			<rect x="29.19" y="69.07" transform="matrix(-0.7071 -0.7071 0.7071 -0.7071 202.9898 239.3291)" class="st7" width="243.75" height="17.12"/>
		<circle class="st3" cx="242.51" cy="160.94" r="58.75"/>
		<circle class="st8" cx="242.51" cy="159.68" r="49.2"/>
		<circle class="st5" cx="242.51" cy="160.69" r="38.57"/>
		<circle class="st0" cx="242.51" cy="160.44" r="29.02"/>
		<circle class="st1" cx="242.51" cy="160.18" r="21.81"/>
		<circle class="st2" cx="242.51" cy="159.93" r="11.17"/>
		<circle class="st5" cx="125.31" cy="41.32" r="113.08"/>
		<circle class="st8" cx="125.31" cy="38.89" r="94.7"/>
		<circle class="st3" cx="125.31" cy="40.91" r="74.23"/>
		<circle class="st8" cx="125.31" cy="40.51" r="55.85"/>
		<circle class="st2" cx="125.31" cy="40.1" r="41.97"/>
		<circle class="st1" cx="125.31" cy="39.7" r="32.44"/>
		<circle class="st0" cx="124.91" cy="39.29" r="21.51"/>
		
			<rect x="86.66" y="105.59" transform="matrix(-0.7071 -0.7071 0.7071 -0.7071 275.2788 342.3207)" class="st3" width="243.75" height="17.12"/>
		
			<rect x="98.28" y="93.97" transform="matrix(-0.7071 -0.7071 0.7071 -0.7071 303.3311 330.701)" class="st4" width="243.75" height="17.12"/>
		
			<rect x="109.9" y="82.35" transform="matrix(-0.7071 -0.7071 0.7071 -0.7071 331.3835 319.0814)" class="st5" width="243.75" height="17.12"/>
		
			<rect x="121.52" y="70.73" transform="matrix(-0.7071 -0.7071 0.7071 -0.7071 359.4359 307.4617)" class="st0" width="243.75" height="17.12"/>
		
			<rect x="133.14" y="59.11" transform="matrix(-0.7071 -0.7071 0.7071 -0.7071 387.4883 295.842)" class="st1" width="243.75" height="17.12"/>
		
			<rect x="144.76" y="47.49" transform="matrix(-0.7071 -0.7071 0.7071 -0.7071 415.5406 284.2224)" class="st2" width="243.75" height="17.12"/>
		
			<rect x="36.42" y="198.62" transform="matrix(0.7071 -0.7071 0.7071 0.7071 -118.8486 127.426)" class="st3" width="115.95" height="17.12"/>
		
			<rect x="48.04" y="210.24" transform="matrix(0.7071 -0.7071 0.7071 0.7071 -123.6616 139.0457)" class="st4" width="115.95" height="17.12"/>
		
			<rect x="59.66" y="221.86" transform="matrix(0.7071 -0.7071 0.7071 0.7071 -128.4746 150.6654)" class="st5" width="115.95" height="17.12"/>
		<rect x="326.94" y="131.26" class="st3" width="180.65" height="17.12"/>
		<rect x="326.94" y="147.69" class="st4" width="180.65" height="17.12"/>
		<rect x="326.94" y="164.12" class="st5" width="180.65" height="17.12"/>
		
			<rect x="70.74" y="231.22" transform="matrix(0.7071 -0.7071 0.7071 0.7071 -133.0665 161.751)" class="st2" width="115.95" height="20.57"/>
		
			<rect x="80.37" y="242.57" transform="matrix(0.7071 -0.7071 0.7071 0.7071 -137.0532 171.3759)" class="st5" width="115.95" height="17.12"/>
		
			<rect x="39.54" y="242.32" transform="matrix(0.7071 -0.7071 0.7071 0.7071 -130.1231 187.6209)" class="st0" width="243.75" height="17.12"/>
		
			<rect x="51.16" y="253.94" transform="matrix(0.7071 -0.7071 0.7071 0.7071 -134.9362 199.2406)" class="st1" width="243.75" height="17.12"/>
		
			<rect x="62.78" y="265.56" transform="matrix(0.7071 -0.7071 0.7071 0.7071 -139.7492 210.8603)" class="st2" width="243.75" height="17.12"/>
		
			<rect x="74.4" y="277.18" transform="matrix(0.7071 -0.7071 0.7071 0.7071 -144.5622 222.4799)" class="st3" width="243.75" height="17.12"/>
		
			<rect x="295.07" y="147.78" transform="matrix(0.7071 -0.7071 0.7071 0.7071 11.5711 340.6177)" class="st0" width="243.75" height="17.12"/>
		
			<rect x="306.69" y="159.4" transform="matrix(0.7071 -0.7071 0.7071 0.7071 6.7581 352.2374)" class="st1" width="243.75" height="17.12"/>
		
			<rect x="318.31" y="171.02" transform="matrix(0.7071 -0.7071 0.7071 0.7071 1.945 363.857)" class="st2" width="243.75" height="17.12"/>
		
			<rect x="333.08" y="148.1" transform="matrix(-0.7071 -0.7071 0.7071 -0.7071 665.8937 589.1357)" class="st0" width="243.75" height="17.12"/>
		
			<rect x="321.47" y="159.72" transform="matrix(-0.7071 -0.7071 0.7071 -0.7071 637.8414 600.7554)" class="st1" width="243.75" height="17.12"/>
		
			<rect x="309.85" y="171.34" transform="matrix(-0.7071 -0.7071 0.7071 -0.7071 609.789 612.3751)" class="st2" width="243.75" height="17.12"/>
		
			<rect x="298.23" y="182.96" transform="matrix(-0.7071 -0.7071 0.7071 -0.7071 581.7366 623.9947)" class="st3" width="243.75" height="17.12"/>
		<circle class="st3" cx="351.62" cy="158.58" r="58.75"/>
		<circle class="st8" cx="351.62" cy="157.31" r="49.2"/>
		<circle class="st5" cx="351.62" cy="158.32" r="38.57"/>
		<circle class="st0" cx="351.62" cy="158.07" r="29.02"/>
		<circle class="st1" cx="351.62" cy="157.82" r="21.81"/>
		<circle class="st2" cx="351.62" cy="157.57" r="11.17"/>
		<circle class="st3" cx="494.17" cy="272.73" r="58.75"/>
		<circle class="st8" cx="494.17" cy="271.47" r="49.2"/>
		<circle class="st5" cx="494.17" cy="272.48" r="38.57"/>
		<circle class="st0" cx="494.17" cy="272.23" r="29.02"/>
		<circle class="st1" cx="494.17" cy="271.98" r="21.81"/>
		<circle class="st2" cx="494.17" cy="271.73" r="11.17"/>
		<circle class="st3" cx="460.4" cy="65.64" r="58.75"/>
		<circle class="st8" cx="460.4" cy="64.38" r="49.2"/>
		<circle class="st5" cx="460.4" cy="65.39" r="38.57"/>
		<circle class="st0" cx="460.4" cy="65.14" r="29.02"/>
		<circle class="st1" cx="460.4" cy="64.89" r="21.81"/>
		<circle class="st2" cx="460.4" cy="64.63" r="11.17"/>
		<circle class="st5" cx="312.63" cy="279.45" r="109.51"/>
		<circle class="st2" cx="312.63" cy="277.1" r="91.71"/>
		<circle class="st3" cx="312.63" cy="278.98" r="71.89"/>
		<circle class="st2" cx="312.63" cy="278.51" r="54.08"/>
		<circle class="st1" cx="312.63" cy="278.04" r="40.65"/>
		<circle class="st0" cx="312.63" cy="277.57" r="31.16"/>
		<circle class="st5" cx="312.63" cy="277.5" r="22.72"/>
		<circle class="st8" cx="312.63" cy="277.49" r="13.13"/>
		<circle class="st0" cx="324.99" cy="31.88" r="109.51"/>
		<circle class="st1" cx="324.99" cy="29.53" r="91.71"/>
		<circle class="st2" cx="324.99" cy="31.41" r="71.89"/>
		<circle class="st3" cx="324.99" cy="30.94" r="54.08"/>
		<circle class="st8" cx="324.99" cy="30.47" r="40.65"/>
		<circle class="st0" cx="324.99" cy="30" r="31.83"/>
		<circle class="st5" cx="324.99" cy="29.92" r="24.22"/>
		<circle class="st1" cx="324.99" cy="29.92" r="16.56"/>
		<g class="st9">
			<defs>
				<rect id="SVGID_3_" x="506.2" y="-35.55" width="9.75" height="27.1"/>
			</defs>
			<clipPath id="SVGID_4_">
				<use xlink:href="#SVGID_3_"  style="overflow:visible;"/>
			</clipPath>
			<path class="st10" d="M508.4-12.33L508.4-12.33l-0.45-0.01v0.01c0,1.65,1.34,2.99,2.99,2.99c1.65,0,2.99-1.34,2.99-2.99v-0.01
				h-0.45v0.01c0,1.4-1.14,2.54-2.54,2.54C509.54-9.79,508.4-10.93,508.4-12.33"/>
			<path class="st11" d="M508.85-12.33L508.85-12.33l-0.45-0.01v0.01c0,1.4,1.14,2.54,2.54,2.54c1.4,0,2.54-1.14,2.54-2.54v-0.01
				h-0.45v0.01c0,1.15-0.94,2.09-2.09,2.09C509.79-10.24,508.85-11.18,508.85-12.33"/>
			<path class="st12" d="M509.3-12.33L509.3-12.33l-0.45-0.01v0.01c0,1.16,0.94,2.1,2.1,2.1c1.16,0,2.1-0.94,2.1-2.1v-0.01h-0.45
				v0.01c0,0.91-0.74,1.65-1.65,1.65C510.03-10.69,509.3-11.42,509.3-12.33"/>
			<path class="st13" d="M509.74-12.33L509.74-12.33l-0.45-0.01v0.01c0,0.91,0.74,1.65,1.65,1.65c0.91,0,1.65-0.74,1.65-1.65v-0.01
				h-0.45v0.01c0,0.66-0.54,1.2-1.2,1.2C510.28-11.13,509.74-11.67,509.74-12.33"/>
			<path class="st14" d="M510.19-12.33L510.19-12.33l-0.45-0.01v0.01c0,0.67,0.54,1.21,1.21,1.21c0.67,0,1.21-0.54,1.21-1.21v-0.01
				h-0.45v0.01c0,0.42-0.34,0.75-0.75,0.75C510.53-11.58,510.19-11.92,510.19-12.33"/>
			<path class="st15" d="M507.51-12.33L507.51-12.33l-0.45-0.01v0.01c0,2.14,1.74,3.88,3.88,3.88c2.14,0,3.88-1.74,3.88-3.88v-0.01
				h-0.45v0.01c0,1.89-1.54,3.43-3.43,3.43C509.05-8.9,507.51-10.44,507.51-12.33"/>
			<path class="st16" d="M507.96-12.33L507.96-12.33l-0.45-0.01v0.01c0,1.89,1.54,3.44,3.44,3.44c1.89,0,3.44-1.54,3.44-3.44v-0.01
				h-0.45v0.01c0,1.64-1.34,2.98-2.98,2.98C509.3-9.35,507.96-10.69,507.96-12.33"/>
		</g>
	</g>
	<rect x="28.46" y="358.58" class="st17" width="458.61" height="221.11"/>
	<rect x="30.2" y="358.19" class="st17" width="223.08" height="110.95"/>
	<rect x="28.46" y="567.37" width="458.61" height="12.32"/>
	<rect x="28.46" y="555.05" class="st18" width="458.61" height="12.32"/>
	<rect x="28.46" y="542.73" width="458.61" height="12.32"/>
	<rect x="28.46" y="530.41" class="st18" width="458.61" height="12.32"/>
	<rect x="28.46" y="518.09" width="458.61" height="12.32"/>
	<rect x="28.46" y="505.77" class="st18" width="458.61" height="12.32"/>
	<rect x="28.46" y="493.45" width="458.61" height="12.32"/>
	<rect x="28.46" y="481.13" class="st18" width="458.61" height="12.32"/>
	<rect x="28.46" y="468.81" width="458.61" height="12.32"/>
	<rect x="28.46" y="456.49" class="st18" width="458.61" height="12.32"/>
	<rect x="28.46" y="444.17" width="458.61" height="12.32"/>
	<rect x="28.46" y="431.85" class="st18" width="458.61" height="12.32"/>
	<rect x="28.46" y="419.53" width="458.61" height="12.32"/>
	<rect x="28.46" y="407.21" class="st18" width="458.61" height="12.32"/>
	<rect x="28.46" y="394.89" width="458.61" height="12.32"/>
	<rect x="28.46" y="382.57" class="st18" width="458.61" height="12.32"/>
	<rect x="28.46" y="370.25" width="458.61" height="12.32"/>
	<rect x="28.46" y="357.93" class="st18" width="458.61" height="12.32"/>
	<rect x="28.46" y="358.95" class="st18" width="229.3" height="110.19"/>
	<polygon points="239.47,407.94 228.57,402.46 217.88,408.33 219.72,396.27 210.83,387.92 222.87,385.94 228.07,374.9 
		233.67,385.74 245.77,387.28 237.19,395.95 	"/>
	<polygon points="239.47,448.57 228.57,443.09 217.88,448.96 219.72,436.9 210.83,428.55 222.87,426.57 228.07,415.54 
		233.67,426.38 245.77,427.91 237.19,436.58 	"/>
	<polygon points="199.01,407.94 188.11,402.46 177.42,408.33 179.26,396.27 170.37,387.92 182.41,385.94 187.61,374.9 
		193.21,385.74 205.31,387.28 196.73,395.95 	"/>
	<polygon points="199.01,448.57 188.11,443.09 177.42,448.96 179.26,436.9 170.37,428.55 182.41,426.57 187.61,415.54 
		193.21,426.38 205.31,427.91 196.73,436.58 	"/>
	<polygon points="158.55,407.94 147.65,402.46 136.96,408.33 138.8,396.27 129.91,387.92 141.95,385.94 147.15,374.9 152.75,385.74 
		164.85,387.28 156.27,395.95 	"/>
	<polygon points="158.55,448.57 147.65,443.09 136.96,448.96 138.8,436.9 129.91,428.55 141.95,426.57 147.15,415.54 152.75,426.38 
		164.85,427.91 156.27,436.58 	"/>
	<polygon points="118.09,407.94 107.19,402.46 96.5,408.33 98.34,396.27 89.45,387.92 101.49,385.94 106.69,374.9 112.29,385.74 
		124.39,387.28 115.81,395.95 	"/>
	<polygon points="118.09,448.57 107.19,443.09 96.5,448.96 98.34,436.9 89.45,428.55 101.49,426.57 106.69,415.54 112.29,426.38 
		124.39,427.91 115.81,436.58 	"/>
	<polygon points="77.63,407.94 66.73,402.46 56.04,408.33 57.88,396.27 48.99,387.92 61.03,385.94 66.23,374.9 71.83,385.74 
		83.93,387.28 75.35,395.95 	"/>
	<polygon points="77.63,448.57 66.73,443.09 56.04,448.96 57.88,436.9 48.99,428.55 61.03,426.57 66.23,415.54 71.83,426.38 
		83.93,427.91 75.35,436.58 	"/>
</g>
<g id="Layer_3">
	<path class="st18" d="M293.67,190.22c0.83-1.16,1.35-2.38,1.51-3.41c-0.31-0.34-0.61-0.7-0.88-1.07c-0.54-0.11-1.13-0.55-1.57-1.23
		c-0.67-1.04-0.69-2.17-0.06-2.59c0.64-0.41,1.66,0.08,2.33,1.12c0.36,0.56,0.53,1.15,0.51,1.64c2.54,2.14,5.74,3.45,9.25,3.54
		c6.77,0.16,12.59-4.29,14.84-10.61c-0.07-0.25-0.1-0.53-0.1-0.82c0-1.24,0.65-2.2,1.47-2.2s1.47,0.97,1.47,2.2
		c0,0.93-0.37,1.71-0.9,2.04c-0.01,0.05-0.03,0.1-0.04,0.15c1.31,0.21,2.9,0.22,4.6-0.04c3.76-0.58,6.72-2.25,7.07-3.89
		c0.05,0.08,0.1,0.17,0.14,0.26c0.65,1.68-2,4.29-5.94,5.82c-2.65,1.03-5.21,1.31-6.79,0.86c-0.09,0.23-0.19,0.45-0.29,0.67
		c1.46,1.21,3.73,2.29,6.4,2.91c4.5,1.05,8.57,0.43,9.69-1.35c0.02,0.12,0.04,0.24,0.04,0.37c0,2.29-4.14,4.15-9.25,4.15
		c-4.13,0-7.62-1.21-8.81-2.89c-0.67,0.87-1.42,1.68-2.25,2.38c0.63,1.28,1.57,2.63,2.78,3.88c2.96,3.06,6.45,4.5,8.26,3.53
		c-0.05,0.12-0.1,0.23-0.16,0.33c-1.21,1.95-5.41,1.52-9.39-0.95c-2.21-1.37-3.88-3.08-4.73-4.67c-1.24,0.61-2.57,1.05-3.96,1.3
		c-0.19,1.07-0.21,2.34,0,3.67c0.47,3.1,1.95,5.44,3.45,5.63c-0.08,0.05-0.15,0.1-0.24,0.13c-1.55,0.65-3.9-1.39-5.23-4.56
		c-0.71-1.69-0.99-3.36-0.87-4.65c-0.01,0-0.01,0-0.02,0c-1.06-0.03-2.09-0.17-3.08-0.41c0.1,1.27-0.19,2.89-0.88,4.53
		c-1.34,3.17-3.68,5.22-5.23,4.56c-0.08-0.04-0.16-0.08-0.24-0.13c1.5-0.19,2.98-2.54,3.45-5.63c0.25-1.67,0.16-3.23-0.19-4.44
		c-0.99-0.49-1.93-1.09-2.79-1.78c-0.33,1.02-1.17,2.2-2.38,3.22c-2.1,1.77-4.5,2.37-5.36,1.34c-0.05-0.06-0.09-0.12-0.12-0.18
		C290.31,193.37,292.22,192.25,293.67,190.22z"/>
	<path class="st18" d="M335.65,106.32c-0.17-3.99-5.62-3.8-6.06,0c-0.16,1.39-3.03,2.85-4,3.49c-1.48,0.97-3.01,1.86-4.58,2.67
		c-3.18,1.64-6.55,2.77-9.85,4.12c-5.71,2.33-11.13,5.43-14.17,11.02c-1.86,3.43,3.37,6.49,5.24,3.06
		c3.7-6.81,11.88-8.53,18.47-11.38c2.82-1.22,6.41-2.79,9.38-4.93c0.33,5.53,0.49,11.15-0.72,16.41
		c-1.41,6.15-5.78,12.53-12.71,12.56c-3.9,0.02-3.91,6.08,0,6.06c8-0.04,14.42-5.84,17.3-13.01
		C337.69,127.06,336.06,116.11,335.65,106.32z"/>
	<path class="st18" d="M216.95,106.32c0.17-3.99,5.62-3.8,6.06,0c0.16,1.39,3.03,2.85,4,3.49c1.48,0.97,3.01,1.86,4.58,2.67
		c3.18,1.64,6.55,2.77,9.85,4.12c5.71,2.33,11.13,5.43,14.17,11.02c1.86,3.43-3.37,6.49-5.24,3.06c-3.7-6.81-11.88-8.53-18.47-11.38
		c-2.82-1.22-6.41-2.79-9.38-4.93c-0.33,5.53-0.49,11.15,0.72,16.41c1.41,6.15,5.78,12.53,12.71,12.56c3.9,0.02,3.91,6.08,0,6.06
		c-8-0.04-14.42-5.84-17.3-13.01C214.91,127.06,216.54,116.11,216.95,106.32z"/>
	<path class="st19" d="M302.79,158.96c-2.19-5.28-7.34-8.51-11.22-12.53c-2.83-2.93-4.7-6.15-4.39-10.26
		c0.17-2.21,0.72-4.44,1.37-6.65c1.12-2.69,2.68-5.23,4.2-7.7c0.59-0.96-0.66-1.95-1.54-1.24c-3.46,2.79-7.5,4.36-12.02,4.61
		c-0.6,0.03-0.95,0.37-1.05,0.93c-0.07,0.43-0.15,0.86-0.22,1.29c-5.12,6.12-5.71,14.89-0.04,21.04c4.06,4.41,9.2,7.67,12.26,12.92
		c3.39,5.84,3.54,14.7-3.92,17.55c-0.22,0.04-0.43,0.09-0.65,0.13c-1.21,0.21-0.87,1.9,0.24,1.91c0.16,0.05,0.35,0.04,0.56-0.03
		c0.1-0.04,0.2-0.08,0.3-0.12C296.19,178.81,306.97,169.07,302.79,158.96z"/>
	<path class="st20" d="M281.06,167.21c-3.78-2.9-7.82-5.68-10.06-9.9c-2.25-4.24-2.47-9.07-0.99-13.56
		c0.29-0.88-0.75-1.41-1.51-1.09c-3.35,1.41-7.54,0.57-9.75-2.26c-2.01-2.58-2.02-8.06,1.39-9.86c2.14-1.13,2.86,2.32,4.71,3.28
		c1.73,0.9,3.98,0.88,5.79,0.21c2.56-0.94,7.81-5.16,6.68-8.19c-0.81-2.17-3.89-2.71-5.81-3.54c-3.37-1.46-6.24-3.62-8.68-6.23
		c-0.59-0.63-1.44-0.21-1.67,0.42c-1.31,0.77-2.35,1.7-3.43,2.81c-0.64,0.65-1.23,1.35-1.92,1.96c-0.51,0.39-1.02,0.79-1.53,1.18
		c-2.05,1.45-3.32,0.56-3.81-2.65c0.76-0.17,0.99-1.11,0.45-1.62c-5.74-5.43-13.42,7.93-5.43,11.58c-2.43,3.8-2.53,8.6,0.14,12.4
		c1.64,2.34,4.08,4.02,5.97,6.16c2.58,2.93,3.2,6.54,4.32,10.07c1.57,4.94,4.19,8,9.45,9.55c3.59,1.06,6.9,3,10.05,4.93
		c1.72,1.05,3.48,2.24,4.5,3.97c0.5,0.85,0.9,2.01,0.8,2.99c-0.13,2.08-1.06,3.1-2.81,3.07c-1.98,0.69-2.55-0.42-1.71-3.33
		c1.13-0.67,0.14-2.22-1.04-1.67c-5.5,2.56-2.2,9.64,1.94,11.77c5.44,2.79,12.1-0.52,13.32-6.08
		C291.94,176.64,286.24,171.18,281.06,167.21z"/>
	<path class="st21" d="M292.92,165.36c-1.88-7.57-8.53-10.4-13.19-15.83c-2.62-3.04-3.97-7.01-3.94-11.04
		c0.01-1.88,0.33-3.76,0.95-5.53c0.55-1.55,1.74-2.95,2.05-4.59c0.31-1.61-0.69-3.51-2.52-3.3c-0.52,0.06-0.95,0.33-1.32,0.73
		c-0.34,0.04-0.67,0.23-0.83,0.62c-1.03,2.49-2.35,5.07-4.7,6.53c-1.15,0.71-2.47,1.03-3.7,0.93c-0.11-0.12-0.26-0.21-0.47-0.25
		c-2.08-0.47-3.25-2.88-2.18-4.77c0.5-0.88-0.7-1.87-1.43-1.1c-0.76,0.8-1.54,1.64-2.29,2.52c-0.11,0.09-0.22,0.18-0.33,0.28
		c-1.65,0.94-2.74,2.54-3.12,4.32c-0.61,1.74-0.52,3.6,0.86,5.36c0.49,0.62,1.02,1.1,1.59,1.47c1.77,1.5,4,1.99,6.21,1.7
		c1.12,0.16,2.31,0.11,3.45-0.07c-0.91,5.42,0.02,11.08,2.79,15.9c1.78,3.09,4.3,5.51,7.1,7.65c3.32,2.53,11.65,6.68,8.14,12
		c-0.52,0.79,0.51,1.8,1.28,1.3C292.22,177,294.33,171.06,292.92,165.36z"/>
	<path class="st22" d="M309.18,177.43c-0.71-0.37-1.52,0.24-1.34,1.03c0.4,1.07,0.28,2.02-0.35,2.87c-0.25,1.14-1.02,1.43-2.29,0.86
		c-1.94-0.03-2.46-0.32-2.38-2.25c0.08-1.83,1.43-3.44,2.41-4.9c1.58-2.36,2.83-4.86,3.71-7.56c1.94-5.9,2.25-12.21,2.54-18.37
		c0.04-0.93-1.24-1.2-1.69-0.46c-1.44,2.34-4.1,3.68-6.81,2.78c-2.8-0.93-3.98-3.59-4.19-6.32c-0.32-4.18,0.51-8.59,0.85-12.75
		c0.55-6.7,0.19-13.18-5.82-17.29c-0.31-0.21-0.62-0.19-0.86-0.05c-0.39-0.04-0.77,0.14-0.85,0.65c-0.72,4.86-1.4,9.74-1.83,14.63
		c-0.35,3.96-0.24,7.88,1.52,11.52c3.48,7.2,11.9,12.03,11.71,20.78c-0.1,4.63-2.48,8.97-6.3,11.55c-2.76,1.86-5.3,3.31-5.85,6.88
		c-1.01,6.54,5.32,11.94,11.56,11.16C309.5,191.38,317.59,181.87,309.18,177.43z"/>
	<path class="st23" d="M313.08,155.43c-2.28,5.48-8.97,2.61-11.73-0.59c-2.99-3.47-4.96-8.04-6.14-12.41
		c-1.15-4.26-1.33-8.49-1.2-12.87c0.11-3.67,0.03-7.14-1.46-10.55c-0.25-0.57-1.04-0.53-1.43-0.18c-0.24,0.21-0.45,0.43-0.66,0.65
		c-0.55-0.28-1.37-0.02-1.34,0.77c0.01,0.35,0.01,0.69,0.01,1.03c-0.26,0.45-0.5,0.93-0.71,1.46c-0.23,0.55,0.12,0.95,0.58,1.06
		c-0.27,2.75-0.91,5.4-1.61,8.16c-0.72,2.86-1.24,5.83-0.22,8.68c0.9,2.54,2.77,4.55,4.56,6.5c2.42,2.64,4.61,5.4,6.37,8.52
		c0.94,1.67,1.77,3.41,2.46,5.2c0.44,1.15,0.68,2.6,1.44,3.6c1.27,1.69,3.53,1.32,5.39,1.11c5.8-0.68,7.55-4.46,7.48-9.91
		C314.85,154.58,313.45,154.53,313.08,155.43z"/>
	<path class="st18" d="M263.39,190.22c-0.83-1.16-1.35-2.38-1.51-3.41c0.31-0.34,0.61-0.7,0.88-1.07c0.54-0.11,1.13-0.55,1.57-1.23
		c0.67-1.04,0.69-2.17,0.06-2.59c-0.64-0.41-1.66,0.08-2.33,1.12c-0.36,0.56-0.53,1.15-0.51,1.64c-2.54,2.14-5.74,3.45-9.25,3.54
		c-6.77,0.16-12.59-4.29-14.84-10.61c0.07-0.25,0.1-0.53,0.1-0.82c0-1.24-0.65-2.2-1.47-2.2c-0.82,0-1.47,0.97-1.47,2.2
		c0,0.93,0.37,1.71,0.9,2.04c0.01,0.05,0.03,0.1,0.04,0.15c-1.31,0.21-2.9,0.22-4.6-0.04c-3.76-0.58-6.72-2.25-7.07-3.89
		c-0.05,0.08-0.1,0.17-0.14,0.26c-0.65,1.68,2,4.29,5.94,5.82c2.65,1.03,5.21,1.31,6.79,0.86c0.09,0.23,0.19,0.45,0.29,0.67
		c-1.46,1.21-3.73,2.29-6.4,2.91c-4.5,1.05-8.57,0.43-9.69-1.35c-0.02,0.12-0.04,0.24-0.04,0.37c0,2.29,4.14,4.15,9.25,4.15
		c4.13,0,7.62-1.21,8.81-2.89c0.67,0.87,1.42,1.68,2.25,2.38c-0.63,1.28-1.57,2.63-2.78,3.88c-2.96,3.06-6.45,4.5-8.26,3.53
		c0.05,0.12,0.1,0.23,0.16,0.33c1.21,1.95,5.41,1.52,9.39-0.95c2.21-1.37,3.88-3.08,4.73-4.67c1.24,0.61,2.57,1.05,3.96,1.3
		c0.19,1.07,0.21,2.34,0,3.67c-0.47,3.1-1.95,5.44-3.45,5.63c0.08,0.05,0.15,0.1,0.24,0.13c1.55,0.65,3.9-1.39,5.23-4.56
		c0.71-1.69,0.99-3.36,0.87-4.65c0.01,0,0.01,0,0.02,0c1.06-0.03,2.09-0.17,3.08-0.41c-0.1,1.27,0.19,2.89,0.88,4.53
		c1.34,3.17,3.68,5.22,5.23,4.56c0.08-0.04,0.16-0.08,0.24-0.13c-1.5-0.19-2.98-2.54-3.45-5.63c-0.25-1.67-0.16-3.23,0.19-4.44
		c0.99-0.49,1.93-1.09,2.79-1.78c0.33,1.02,1.17,2.2,2.38,3.22c2.1,1.77,4.5,2.37,5.36,1.34c0.05-0.06,0.09-0.12,0.12-0.18
		C266.75,193.37,264.84,192.25,263.39,190.22z"/>
	<path class="st19" d="M241.1,128.63c3.59,3.59,4.75,8.24,2.6,10.4s-6.81,0.99-10.4-2.6s-4.9-12.99-4.9-12.99
		S237.51,125.04,241.1,128.63z"/>
	<path class="st19" d="M311.72,127.78c-3.76,3.41-7.24,5.28-3.1,10.26c4.14,4.98,6.75,1.32,10.51-2.09s5.53-12.73,5.53-12.73
		S315.48,124.37,311.72,127.78z"/>
	<path class="st18" d="M280.22,73.4c-3.6,2.08-7.65,2.02-11.61,1.44c-1.08,5.4-2.15,10.83-3.09,15.84c0.61,0.39,1.26,0.7,1.97,0.93
		c0.01,0,0.02,0,0.03,0c4.87,0.95,10.11,1.83,14.5-1.13c2.12-1.43,3.88-3.37,5.4-5.49c-1.11-4.75-2.29-9.7-3.45-14.52
		C282.83,71.61,281.59,72.61,280.22,73.4z"/>
	<g>
		<path class="st18" d="M278.14,55.83c0.65-0.44,1.27-0.93,1.86-1.46c-2.28-9.17-3.94-15.68-3.94-15.68s-1.74,8.19-4,19.13
			C274.19,57.67,276.24,57.11,278.14,55.83z"/>
		<path class="st18" d="M278.29,57.89c-2.08,1.2-4.32,1.69-6.6,1.77c-0.87,4.22-1.8,8.78-2.73,13.4c3.84,0.56,7.73,0.56,11.12-1.72
			c1.24-0.83,2.35-1.85,3.37-2.97c-1.03-4.22-2.03-8.31-2.95-12.03C279.8,56.92,279.06,57.44,278.29,57.89z"/>
	</g>
	<path class="st18" d="M283.74,109.61c-4.85,3.59-10.77,3.04-16.33,2.23c-0.12,0.02-0.26,0.02-0.41-0.02
		c-1.72-0.47-3.29-1.32-4.67-2.53c-0.19,1.43-0.29,2.54-0.29,3.21c0,7.85,5.86,13.68,15.3,13.68s15.66-5.47,15.66-13.32
		c0-1.71-0.8-6.2-2.06-12.16C289.04,104.18,286.71,107.41,283.74,109.61z"/>
	<path class="st18" d="M263.12,107.1c1.2,1.17,2.57,1.99,4.1,2.44c0.01,0,0.02,0,0.04,0c5.54,0.82,11.47,1.53,16.15-2.48
		c2.9-2.48,5.07-5.98,6.83-9.62c-0.68-3.13-1.45-6.56-2.28-10.13c-1.65,2.09-3.55,3.95-5.79,5.24c-4.53,2.62-9.76,1.86-14.66,0.92
		c-0.11,0.01-0.23,0-0.36-0.04c-0.7-0.22-1.36-0.5-1.99-0.84c-1.05,5.61-1.93,10.59-2.49,14.25
		C262.82,106.87,262.98,106.95,263.12,107.1z"/>
</g>
</svg>
