<?xml version="1.0" encoding="utf-8"?>
<!-- Generator: Adobe Illustrator 23.0.1, SVG Export Plug-In . SVG Version: 6.00 Build 0)  -->
<svg version="1.1" id="Layer_1" xmlns="http://www.w3.org/2000/svg" xmlns:xlink="http://www.w3.org/1999/xlink" x="0px" y="0px"
	 viewBox="0 0 252.11 287.54" style="enable-background:new 0 0 252.11 287.54;" xml:space="preserve">
<style type="text/css">
	.st0{fill:#FFFFFF;}
	.st1{fill:#F9CDE0;}
	.st2{fill:#97CEE9;}
	.st3{fill:#C5C62F;}
	.st4{fill:#E75F32;}
	.st5{fill:#F3D659;}
</style>
<path class="st0" d="M155.22,251.47c1.31-1.83,2.12-3.75,2.38-5.36c-0.48-0.54-0.95-1.1-1.39-1.68c-0.84-0.17-1.77-0.87-2.47-1.94
	c-1.05-1.64-1.09-3.42-0.09-4.07c1-0.65,2.62,0.13,3.67,1.77c0.57,0.89,0.83,1.82,0.8,2.59c4.01,3.37,9.04,5.44,14.57,5.57
	c10.65,0.25,19.82-6.75,23.37-16.71c-0.1-0.4-0.16-0.83-0.16-1.28c0-1.95,1.02-3.47,2.31-3.47s2.31,1.52,2.31,3.47
	c0,1.47-0.58,2.7-1.42,3.21c-0.02,0.08-0.04,0.16-0.06,0.24c2.07,0.34,4.57,0.35,7.24-0.06c5.93-0.91,10.57-3.54,11.13-6.13
	c0.08,0.13,0.16,0.26,0.22,0.41c1.03,2.65-3.15,6.75-9.34,9.16c-4.18,1.62-8.2,2.06-10.69,1.36c-0.15,0.36-0.29,0.71-0.45,1.06
	c2.29,1.9,5.87,3.6,10.07,4.58c7.09,1.65,13.49,0.67,15.25-2.13c0.04,0.19,0.07,0.38,0.07,0.58c0,3.61-6.52,6.53-14.56,6.53
	c-6.5,0-12-1.91-13.87-4.55c-1.06,1.37-2.24,2.64-3.54,3.75c1,2.02,2.48,4.14,4.38,6.11c4.65,4.82,10.15,7.09,13,5.56
	c-0.07,0.18-0.15,0.36-0.26,0.52c-1.9,3.06-8.52,2.4-14.79-1.49c-3.48-2.16-6.11-4.85-7.44-7.35c-1.96,0.96-4.05,1.66-6.24,2.04
	c-0.3,1.69-0.33,3.69-0.01,5.78c0.74,4.87,3.08,8.57,5.44,8.87c-0.12,0.08-0.24,0.15-0.38,0.21c-2.44,1.03-6.13-2.19-8.24-7.18
	c-1.12-2.66-1.56-5.28-1.36-7.32c-0.01,0-0.02,0-0.03,0c-1.67-0.04-3.28-0.26-4.85-0.64c0.15,2-0.3,4.55-1.38,7.13
	c-2.11,5-5.79,8.21-8.24,7.18c-0.13-0.06-0.26-0.13-0.38-0.21c2.36-0.29,4.7-3.99,5.44-8.87c0.4-2.62,0.25-5.09-0.29-6.99
	c-1.56-0.77-3.03-1.71-4.39-2.8c-0.52,1.6-1.85,3.46-3.75,5.07c-3.3,2.78-7.08,3.72-8.44,2.11c-0.07-0.09-0.14-0.18-0.19-0.28
	C149.94,256.44,152.93,254.66,155.22,251.47z"/>
<path class="st0" d="M221.31,119.39c-0.26-6.28-8.85-5.99-9.55,0c-0.25,2.18-4.77,4.49-6.3,5.49c-2.33,1.53-4.74,2.93-7.21,4.21
	c-5,2.58-10.32,4.37-15.51,6.49c-9,3.67-17.52,8.54-22.3,17.35c-2.93,5.4,5.31,10.22,8.24,4.82c5.82-10.72,18.71-13.44,29.07-17.92
	c4.44-1.92,10.1-4.4,14.77-7.76c0.52,8.71,0.77,17.56-1.14,25.84c-2.22,9.68-9.1,19.73-20.01,19.78c-6.14,0.03-6.15,9.58,0,9.55
	c12.6-0.06,22.71-9.19,27.24-20.48C224.52,152.04,221.95,134.8,221.31,119.39z"/>
<path class="st0" d="M34.44,119.39c0.26-6.28,8.85-5.99,9.55,0c0.25,2.18,4.77,4.49,6.3,5.49c2.33,1.53,4.74,2.93,7.21,4.21
	c5,2.58,10.32,4.37,15.51,6.49c9,3.67,17.52,8.54,22.3,17.35c2.93,5.4-5.31,10.22-8.24,4.82c-5.82-10.72-18.71-13.44-29.07-17.92
	c-4.44-1.92-10.1-4.4-14.77-7.76c-0.52,8.71-0.77,17.56,1.14,25.84c2.22,9.68,9.1,19.73,20.01,19.78c6.14,0.03,6.15,9.58,0,9.55
	c-12.6-0.06-22.71-9.19-27.24-20.48C31.23,152.04,33.79,134.8,34.44,119.39z"/>
<path class="st1" d="M169.57,202.26c-3.44-8.31-11.55-13.39-17.66-19.73c-4.46-4.62-7.4-9.68-6.91-16.15
	c0.26-3.48,1.14-7,2.15-10.48c1.76-4.23,4.22-8.24,6.61-12.12c0.93-1.51-1.04-3.07-2.43-1.95c-5.44,4.39-11.82,6.86-18.93,7.26
	c-0.95,0.05-1.5,0.58-1.65,1.47c-0.12,0.68-0.23,1.36-0.35,2.04c-8.06,9.63-8.98,23.44-0.07,33.12
	c6.39,6.94,14.49,12.08,19.29,20.35c5.34,9.19,5.58,23.15-6.17,27.62c-0.34,0.07-0.68,0.15-1.02,0.21c-1.9,0.33-1.36,2.99,0.38,3.01
	c0.25,0.07,0.55,0.07,0.88-0.05c0.16-0.06,0.31-0.12,0.47-0.18C159.19,233.51,176.16,218.18,169.57,202.26z"/>
<path class="st2" d="M135.37,215.24c-5.96-4.57-12.32-8.95-15.84-15.58c-3.55-6.68-3.88-14.28-1.56-21.34
	c0.46-1.39-1.18-2.23-2.38-1.72c-5.27,2.21-11.88,0.9-15.35-3.56c-3.17-4.07-3.18-12.69,2.19-15.53c3.37-1.78,4.5,3.65,7.41,5.17
	c2.73,1.42,6.27,1.39,9.12,0.34c4.02-1.49,12.3-8.12,10.52-12.9c-1.27-3.42-6.13-4.27-9.14-5.57c-5.3-2.3-9.83-5.7-13.67-9.81
	c-0.93-1-2.27-0.33-2.62,0.66c-2.07,1.22-3.7,2.68-5.41,4.43c-1,1.03-1.94,2.13-3.02,3.09c-0.8,0.62-1.61,1.24-2.41,1.86
	c-3.22,2.28-5.22,0.89-6-4.17c1.2-0.27,1.55-1.76,0.71-2.55c-9.04-8.55-21.12,12.48-8.55,18.23c-3.83,5.99-3.98,13.54,0.22,19.52
	c2.59,3.68,6.43,6.33,9.4,9.7c4.06,4.61,5.03,10.3,6.8,15.86c2.48,7.78,6.6,12.59,14.88,15.04c5.65,1.67,10.87,4.73,15.81,7.76
	c2.7,1.66,5.48,3.53,7.08,6.25c0.78,1.33,1.42,3.16,1.25,4.7c-0.2,3.28-1.67,4.89-4.42,4.83c-3.12,1.09-4.01-0.66-2.7-5.25
	c1.77-1.06,0.23-3.5-1.63-2.63c-8.66,4.03-3.46,15.18,3.06,18.52c8.57,4.39,19.05-0.83,20.97-9.58
	C152.49,230.1,143.52,221.5,135.37,215.24z"/>
<path class="st3" d="M154.03,212.33c-2.96-11.92-13.43-16.38-20.77-24.92c-4.12-4.79-6.25-11.04-6.2-17.39
	c0.02-2.96,0.51-5.92,1.5-8.7c0.87-2.45,2.73-4.65,3.22-7.22c0.48-2.54-1.09-5.52-3.97-5.19c-0.81,0.09-1.49,0.52-2.08,1.14
	c-0.53,0.06-1.05,0.36-1.31,0.97c-1.62,3.92-3.71,7.99-7.4,10.28c-1.81,1.12-3.89,1.62-5.83,1.46c-0.17-0.18-0.41-0.33-0.73-0.4
	c-3.28-0.73-5.11-4.54-3.44-7.52c0.78-1.39-1.1-2.94-2.25-1.74c-1.2,1.27-2.42,2.59-3.6,3.96c-0.17,0.15-0.35,0.28-0.52,0.44
	c-2.6,1.48-4.31,4-4.91,6.81c-0.97,2.73-0.82,5.67,1.35,8.44c0.76,0.97,1.61,1.72,2.5,2.32c2.79,2.37,6.3,3.13,9.78,2.67
	c1.76,0.24,3.63,0.17,5.43-0.11c-1.43,8.54,0.04,17.44,4.4,25.03c2.8,4.87,6.77,8.68,11.17,12.04c5.23,3.99,18.35,10.52,12.82,18.89
	c-0.82,1.25,0.8,2.84,2.02,2.05C152.93,230.67,156.26,221.3,154.03,212.33z"/>
<path class="st4" d="M179.63,231.33c-1.12-0.59-2.4,0.38-2.1,1.62c0.63,1.68,0.44,3.18-0.55,4.51c-0.4,1.79-1.6,2.24-3.6,1.36
	c-3.05-0.05-3.88-0.5-3.74-3.54c0.13-2.88,2.25-5.42,3.79-7.72c2.49-3.71,4.45-7.65,5.84-11.9c3.05-9.29,3.55-19.22,4-28.91
	c0.07-1.47-1.95-1.88-2.67-0.72c-2.26,3.68-6.45,5.79-10.72,4.38c-4.4-1.46-6.26-5.65-6.6-9.95c-0.51-6.58,0.8-13.52,1.33-20.07
	c0.87-10.54,0.3-20.75-9.17-27.21c-0.49-0.34-0.97-0.3-1.35-0.07c-0.61-0.07-1.21,0.23-1.33,1.03c-1.14,7.65-2.2,15.33-2.87,23.03
	c-0.55,6.24-0.38,12.4,2.4,18.13c5.48,11.33,18.74,18.94,18.44,32.72c-0.16,7.29-3.9,14.12-9.92,18.18
	c-4.35,2.93-8.34,5.21-9.21,10.84c-1.59,10.3,8.37,18.8,18.2,17.57C180.14,253.31,192.88,238.33,179.63,231.33z"/>
<path class="st5" d="M185.77,196.7c-3.6,8.62-14.11,4.11-18.46-0.92c-4.71-5.46-7.81-12.65-9.67-19.53
	c-1.81-6.7-2.1-13.37-1.89-20.26c0.18-5.78,0.05-11.24-2.3-16.6c-0.39-0.89-1.64-0.84-2.25-0.29c-0.37,0.34-0.71,0.68-1.03,1.02
	c-0.86-0.44-2.15-0.04-2.11,1.21c0.02,0.55,0.01,1.08,0.01,1.62c-0.41,0.71-0.78,1.47-1.12,2.3c-0.36,0.87,0.2,1.49,0.91,1.66
	c-0.43,4.33-1.44,8.5-2.54,12.85c-1.14,4.5-1.95,9.17-0.35,13.67c1.42,3.99,4.36,7.17,7.17,10.23c3.8,4.15,7.26,8.5,10.03,13.41
	c1.48,2.63,2.79,5.37,3.88,8.19c0.7,1.82,1.07,4.09,2.26,5.68c2,2.67,5.56,2.09,8.49,1.74c9.14-1.07,11.89-7.02,11.78-15.59
	C188.56,195.36,186.36,195.29,185.77,196.7z"/>
<path class="st0" d="M107.54,251.47c-1.31-1.83-2.12-3.75-2.38-5.36c0.48-0.54,0.95-1.1,1.39-1.68c0.84-0.17,1.77-0.87,2.47-1.94
	c1.05-1.64,1.09-3.42,0.09-4.07c-1-0.65-2.62,0.13-3.67,1.77c-0.57,0.89-0.83,1.82-0.8,2.59c-4.01,3.37-9.04,5.44-14.57,5.57
	c-10.65,0.25-19.82-6.75-23.37-16.71c0.1-0.4,0.16-0.83,0.16-1.28c0-1.95-1.02-3.47-2.31-3.47c-1.3,0-2.31,1.52-2.31,3.47
	c0,1.47,0.58,2.7,1.42,3.21c0.02,0.08,0.04,0.16,0.06,0.24c-2.07,0.34-4.57,0.35-7.24-0.06c-5.93-0.91-10.57-3.54-11.13-6.13
	c-0.08,0.13-0.16,0.26-0.22,0.41c-1.03,2.65,3.15,6.75,9.34,9.16c4.18,1.62,8.2,2.06,10.69,1.36c0.15,0.36,0.29,0.71,0.45,1.06
	c-2.29,1.9-5.87,3.6-10.07,4.58c-7.09,1.65-13.49,0.67-15.25-2.13c-0.04,0.19-0.07,0.38-0.07,0.58c0,3.61,6.52,6.53,14.56,6.53
	c6.5,0,12-1.91,13.87-4.55c1.06,1.37,2.24,2.64,3.54,3.75c-1,2.02-2.48,4.14-4.38,6.11c-4.65,4.82-10.15,7.09-13,5.56
	c0.07,0.18,0.15,0.36,0.26,0.52c1.9,3.06,8.52,2.4,14.79-1.49c3.48-2.16,6.11-4.85,7.44-7.35c1.96,0.96,4.05,1.66,6.24,2.04
	c0.3,1.69,0.33,3.69,0.01,5.78c-0.74,4.87-3.08,8.57-5.44,8.87c0.12,0.08,0.24,0.15,0.38,0.21c2.44,1.03,6.13-2.19,8.24-7.18
	c1.12-2.66,1.56-5.28,1.36-7.32c0.01,0,0.02,0,0.03,0c1.67-0.04,3.28-0.26,4.85-0.64c-0.15,2,0.3,4.55,1.38,7.13
	c2.11,5,5.79,8.21,8.24,7.18c0.13-0.06,0.26-0.13,0.38-0.21c-2.36-0.29-4.7-3.99-5.44-8.87c-0.4-2.62-0.25-5.09,0.29-6.99
	c1.56-0.77,3.03-1.71,4.39-2.8c0.52,1.6,1.85,3.46,3.75,5.07c3.3,2.78,7.08,3.72,8.44,2.11c0.07-0.09,0.14-0.18,0.19-0.28
	C112.83,256.44,109.83,254.66,107.54,251.47z"/>
<path class="st1" d="M72.45,154.51c5.65,5.65,7.48,12.98,4.09,16.37c-3.39,3.39-10.72,1.56-16.37-4.09
	c-5.65-5.65-7.71-20.45-7.71-20.45S66.8,148.86,72.45,154.51z"/>
<path class="st1" d="M183.63,153.17c-5.92,5.37-11.4,8.32-4.89,16.15c6.51,7.84,10.63,2.08,16.55-3.29
	c5.92-5.37,8.7-20.04,8.7-20.04S189.55,147.8,183.63,153.17z"/>
<path class="st0" d="M134.05,67.56c-5.67,3.27-12.04,3.19-18.28,2.27c-1.7,8.5-3.38,17.05-4.87,24.94c0.96,0.61,1.99,1.11,3.09,1.47
	c0.02,0,0.03,0,0.05,0c7.67,1.5,15.92,2.89,22.83-1.78c3.34-2.25,6.11-5.31,8.5-8.65c-1.74-7.47-3.6-15.27-5.44-22.85
	C138.15,64.75,136.2,66.32,134.05,67.56z"/>
<g>
	<path class="st0" d="M130.77,39.9c1.03-0.69,2.01-1.47,2.94-2.3c-3.59-14.44-6.2-24.68-6.2-24.68s-2.74,12.89-6.3,30.12
		C124.54,42.8,127.78,41.92,130.77,39.9z"/>
	<path class="st0" d="M131,43.14c-3.28,1.89-6.79,2.66-10.38,2.79c-1.37,6.64-2.83,13.82-4.29,21.1c6.04,0.88,12.17,0.88,17.5-2.71
		c1.95-1.31,3.71-2.91,5.31-4.67c-1.62-6.65-3.2-13.08-4.65-18.93C133.38,41.62,132.22,42.43,131,43.14z"/>
</g>
<path class="st0" d="M139.58,124.57c-7.64,5.65-16.96,4.78-25.72,3.5c-0.2,0.03-0.41,0.03-0.64-0.03c-2.7-0.74-5.18-2.08-7.36-3.98
	c-0.29,2.26-0.46,4-0.46,5.05c0,12.36,9.22,21.54,24.09,21.54s24.65-8.61,24.65-20.97c0-2.69-1.26-9.75-3.24-19.15
	C147.92,116.01,144.26,121.11,139.58,124.57z"/>
<path class="st0" d="M107.13,120.61c1.88,1.85,4.04,3.13,6.45,3.84c0.02,0,0.04,0,0.06,0c8.72,1.29,18.06,2.41,25.42-3.9
	c4.56-3.91,7.97-9.42,10.75-15.15c-1.07-4.93-2.29-10.32-3.59-15.95c-2.59,3.29-5.59,6.21-9.12,8.25
	c-7.13,4.12-15.36,2.93-23.07,1.44c-0.18,0.02-0.37,0-0.57-0.06c-1.1-0.34-2.14-0.79-3.13-1.33c-1.66,8.84-3.04,16.67-3.92,22.44
	C106.65,120.26,106.9,120.38,107.13,120.61z"/>
</svg>
