<?xml version="1.0" encoding="utf-8"?>
<!-- Generator: Adobe Illustrator 23.0.1, SVG Export Plug-In . SVG Version: 6.00 Build 0)  -->
<svg version="1.1" xmlns="http://www.w3.org/2000/svg" xmlns:xlink="http://www.w3.org/1999/xlink" x="0px" y="0px"
	 viewBox="0 0 612 792" style="enable-background:new 0 0 612 792;" xml:space="preserve">
<style type="text/css">
	.st0{fill:#A8BF12;}
	.st1{fill:#00AAB5;}
	.st2{fill:#FEFEFE;}
	.st3{fill:#CCAE85;stroke:#997036;stroke-miterlimit:10;}
	.st4{fill:#FF9F00;}
	.st5{fill:#F41C54;}
	.st6{fill:#FBD506;}
	.st7{fill:#FFE05B;}
	.st8{fill:#F63C6C;}
	.st9{fill:#F97B9C;}
	.st10{fill:#F4255B;}
	.st11{fill:#C3D35B;}
	.st12{fill:#CCAE85;}
	.st13{fill:#997036;}
	.st14{fill:#FBABC0;}
	.st15{fill:#F7527D;}
	.st16{fill:#F63E6E;}
	.st17{fill:#D2DE84;}
	.st18{fill:#FA632B;}
	.st19{fill:#FFB233;}
	.st20{fill:#F3F6F3;}
	.st21{fill:#F1F5F1;}
	.st22{fill:#F4F7F4;}
	.st23{fill:#F5F4F4;}
	.st24{fill:#F4F6F4;}
	.st25{fill:#F4F4F4;}
	.st26{fill:#F5F6F5;}
	.st27{fill:#F6F8F6;}
	.st28{fill:#EFF9F0;}
	.st29{fill:#FCFCFC;}
	.st30{fill:#403C3D;}
	.st31{fill:#A84824;}
	.st32{fill:#E94B92;}
	.st33{fill:#343031;}
	.st34{fill:#FDBFA4;}
	.st35{fill:#79FC7A;}
	.st36{fill:#FDD8C6;}
	.st37{fill:#FDC0A5;}
	.st38{fill:#FDC1A7;}
	.st39{fill:#FCE049;}
	.st40{fill:#FFA50F;}
	.st41{fill:#FEFEFD;}
	.st42{display:none;}
	.st43{display:inline;fill:#FF9F00;}
	.st44{display:inline;fill:#F6E57C;}
	.st45{display:none;fill:#FF9F00;}
	.st46{display:none;fill:#F6E57C;}
	.st47{fill:#FFBFD1;}
</style>
<g id="Layer_2">
</g>
<g id="Layer_1">
	<path class="st0" d="M332.61,383.69c1.75,1.59,2.95,3.81,5.33,4.69c0.96,0.82,2.43,0.79,3.23,1.88c1.43,0.43,2.85,0.99,4.31,1.27
		c1.29,0.24,1.27,1.09,1.3,2c0.04,1.17-0.91,1.01-1.59,1.1c-3.5,0.46-6.97,0.35-10.36-0.78c0.41-1.38-0.65-1.92-1.47-2.6
		c-0.83-0.68-1.77-1.25-2.3-2.23C332.58,387.54,331.52,385.31,332.61,383.69z"/>
	<path class="st1" d="M327.93,385.32c0.64-5.11,1.19-10.23,3.37-14.99c3.97,7.98,9.26,15.07,15.11,22.17
		c-3.43,0.94-6.33-0.25-9.26-1.08c-1.26-0.29-2.56-0.35-3.79-0.82C330.93,389.47,328.89,387.94,327.93,385.32z"/>
	<path class="st2" d="M148.32,421.18c-0.73,0-1.7,0.58-2.25-0.47c1.04-0.48,2.14-0.23,3.2-0.23"/>
	<path d="M146.07,420.71c0-0.17,0-0.33,0-0.5"/>
	<path class="st3" d="M207.67,164.22c-4.05-6.1-4.41-12.62-1.86-19.29c2.05-5.36,6.93-6.37,11.86-6.67
		c5.98-0.37,11.99-0.37,17.98-0.57c4.26-0.15,4.58-0.54,5.35-4.75c1.1-6.03,2.79-11.9,5.03-17.61c0.45-1.15,0.73-2.56,2.23-3
		c1.82,2.62,3.45,5.34,4.41,8.41c-2.16,1.03-4.58,1.69-5.71,4.14c-1.82,3.78-1.47,6.88,1.09,9.57c2.21,2.32,5.02,2.11,7.11-0.57
		c0.61-0.78,0.94-1.74,1.65-2.46c1.04-0.45,1.47-2.05,3-1.59c0.95,2.95,0.23,6.04,0.8,9.05c0.39,2.05,0.77,4.02,2.06,5.8
		c0.93-0.69,0.89-2.3,2.25-2.63c1.76,0.96,1.83,2.93,2.64,4.46c0.41,0.78,0.6,1.67,0.94,2.49c1.21,3.64,3.92,6.42,5.62,9.78
		c0.3,1.74,0.32,3.48-0.02,5.2c-0.67,3.39,0.07,6.77-0.06,10.15c-0.31,0.95-1.13,0.84-1.86,0.85c-6.55,0.07-13.12-0.38-19.62,0.94
		c-6.45-5.58-14-6.58-22.14-5.57c-5.71,0.71-11.42,0.74-16.84-1.68c-0.02-1.14,1.02-1.14,1.68-1.46c1.92-0.92,3.75-1.96,5.4-3.3
		c0.83-0.61,1.52-1.34,2.06-2.22c1.62-1.7,2.71-3.73,3.7-6.23c-4.93,3.88-10.14,6.6-15.72,8.63
		C209.7,164.46,208.71,165.12,207.67,164.22z"/>
	<path class="st4" d="M294.29,302.63c-0.02-0.17-0.04-0.34-0.06-0.51c-0.61-0.9-0.06-1.7,0.2-2.52c-0.05-0.47-0.11-0.94-0.16-1.41
		c-0.03-0.72-0.33-1.47,0.3-2.09c1.63-0.54,3.28-0.39,4.93-0.15c0.46,0.33,1.02,0.12,1.51,0.3c5.44,2.31,8.39,6.91,10.64,11.99
		c3.34,7.54,3.77,15.6,3.7,23.71c-0.05,5.99-0.55,11.96-0.89,17.93c-0.45,7.87,0.97,15.15,5.08,21.96
		c3.19,5.28,6.26,10.58,10.75,14.91c2.38,2.29,5.1,3.98,7.95,5.54c0.81,0.38,1.57,0.85,2.43,1.14c1.15,0.47,2.39,0.71,3.54,1.16
		c0.96,0.37,2.18,0.69,1.57,2.23c-0.11,0.64-0.22,1.28-0.33,1.93c-2.07,2.13-4.91,1.93-7.47,2.19c-8.71,0.87-16.4-2.01-23.38-7.02
		c-7.59-5.44-13.3-12.56-17.82-20.62c-3.36-5.98-3.62-12.57-3.04-19.2c0.79-8.96,2.42-17.82,3.57-26.74
		c0.67-5.21,1.26-10.41,0.41-15.67c-0.43-2.66-1.29-4.98-3.63-6.53c-0.02-0.14-0.03-0.28-0.05-0.42
		C293.41,303.95,293.92,303.3,294.29,302.63z"/>
	<path class="st5" d="M287.04,241.19c-0.52-4.35-1.25-8.68-1-13.09c0.07-1.33,0.14-2.64,0.55-3.92c1.41-0.2,2.03,0.96,2.8,1.73
		c4.01,4,8.9,6.14,14.41,7.14c2.25,0.4,4.08,0.21,5.22-2.02c0.96-0.4,1.75,0.11,2.56,0.48c0.9,0.41,1.74,0.92,2.68,1.25
		c2.72,0.95,5.44,1.89,7.51-1.2c1.32,0.4,1.22,1.68,1.64,2.64c1.2,3.91,3.31,7.42,4.97,11.12c2.87,6.42,3.03,12.82,0.35,19.34
		c-0.63,1.54-1.49,2.11-3.19,2.04c-3.82-0.15-7.65-0.06-11.47-0.07c-1.18,0.3-2.36,0.42-3.46-0.28c-7.2-0.47-13.45-2.74-17.71-9.04
		c-2.43-3.58-3.63-7.63-4.89-11.67c-0.97-0.57-0.65-1.53-0.72-2.37C286.98,242.61,286.45,241.97,287.04,241.19z"/>
	<path class="st6" d="M294.1,305.15c1.41-0.41,2.11,0.4,2.72,1.51c2.45,4.47,2.22,9.31,1.85,14.12
		c-0.77,10.02-2.55,19.92-3.97,29.85c-1.64,11.48,0.57,21.69,8.1,30.75c5.87,7.07,12.26,13.34,20.96,16.82
		c7.17,2.86,14.41,3,21.71,0.54c0.12,0.38,0.24,0.77,0.36,1.15c0.02,1.37-1.67,0.94-2.01,1.93c-1.23,1.06-2.7,1.38-4.27,1.38
		c-10.41,3.13-19.87,0.27-28.94-4.7c-17.06-9.35-23.69-24.77-24.89-43.25c-0.51-7.82,1.39-15.29,3.47-22.74
		c1.79-6.4,3.58-12.82,3.43-19.57c0.07-0.82-0.52-1.55-0.33-2.38c0.15-1.69,0.28-3.39,1.38-4.8
		C293.8,305.55,293.95,305.35,294.1,305.15z"/>
	<path class="st1" d="M295.08,144.39c3.93,4.02,6.83,8.58,7.55,14.3c0.05,0.39,0.28,0.8,0.52,1.11c3.4,4.41,4.65,9.5,4.82,14.95
		c0.29,2.27,0.84,4.62-1.68,6.12c-1.7-0.66-2.23-2.38-3.22-3.66c-1.89-2.41-3.9-4.14-7.19-4.76c-8.66-1.64-15.19-9.5-15.96-18.46
		c-0.39-5.09,0.73-9.77,3.75-13.93c0.62-0.61,1.4-0.99,2.23-0.81C289.47,140.02,292.83,141.21,295.08,144.39z"/>
	<path class="st7" d="M195.89,226.81c0.65-1.83-0.46-2.23-1.93-2.62c-9.91-2.68-16.88-11.42-17.33-21.65
		c-0.06-1.33-0.08-2.66,0.4-3.94c0.88-0.43,1.67-0.22,2.42,0.32c-1.82,10.34,4.75,20.86,14.79,23.56c0.77,0.21,2.07,1.14,2.3-0.66
		c0.15-1.11,0.74-2.2-1.2-2.85c-9.41-3.19-14.24-11.12-13.2-21.17c1.25,0.16,1.73,1.3,2.55,2c-0.37,7.97,3.4,14.31,10.05,16.67
		c0.74,0.26,1.98,1.56,2.58-0.37c0.45-1.44,0.06-2.14-1.45-2.76c-5.67-2.34-8.79-8.06-7.78-13.85c0.9-0.04,1.57,0.31,1.9,1.18
		c0.25,4.36,1.58,8.12,5.84,10.16c0.68,0.33,1.69,1.02,2.07-0.13c0.29-0.87,0.84-2.2-0.56-2.83c-3.53-1.57-4.15-4.62-4.2-7.99
		c1.09-0.06,1.65,0.84,2.41,1.36c0.25,1.81,0.6,3.56,2.71,4.39c0.81-1.21,0.63-2.62,0.88-3.92c0.66-0.51,1.31-0.6,1.91,0.1
		c-0.04,0.65-0.08,1.3-0.11,1.95c-0.03,0.74-0.81,1.79,0.15,2.15c0.91,0.34,1.94-0.29,2.48-1.17c0.46-0.75,0.72-1.62,1.07-2.44
		c0.83-0.74,1.52-0.3,2.21,0.25c-0.75,2.93-2.21,5.21-5.47,5.68c-1.88,0.27-1.28,1.71-1.25,2.69c0.04,1.35,1.25,0.78,1.93,0.72
		c4.03-0.39,6.85-3.53,8.1-8.88c0.88-0.37,1.67-0.2,2.37,0.42c-0.84,5.95-5.41,10.49-11.44,10.97c-1.88,0.15-1.7,1.35-1.75,2.34
		c-0.08,1.52,1.16,1,1.98,0.92c7.81-0.74,13.16-5.98,14.46-14.12c0.9-0.31,1.66-0.02,2.34,0.57c-0.95,8.21-8.69,15.4-17.14,15.81
		c-1.44,0.07-2.5,0.18-2.32,1.98c-0.88,2.15,0.51,4.34-0.12,6.49c-0.41,1.68-0.31,3.43-0.72,5.1c-0.24,1.19,0.65,1.39,1.46,1.66
		c1.23,0.43,2.45,0.84,3.7,1.21c0.86,0.54,2.51,0.26,2.17,2.06c-0.12,1.21-0.71,1.7-1.99,1.53c-5.23-0.7-10.47-1.33-15.71-1.99
		c-0.65-0.08-1.39-0.13-1.35-1.08c0.04-0.83,0.65-1.13,1.33-1.22c1.96-0.27,3.93-0.51,5.89-0.71c1.27-0.13,2.21-0.39,1.28-1.93
		c0-0.34,0.05-0.68,0.17-1c0.34-1.32,0.04-2.74,0.59-4.03C195.49,227.38,195.68,227.09,195.89,226.81z"/>
	<path class="st8" d="M252.59,120.71c-1.79-2.61-3.29-5.37-4.33-8.37c-0.08-0.66-0.16-1.33-0.24-2c-1.34-3.9-0.77-5.03,3.25-6.35
		c0.42-0.07,0.88-0.05,1.18,0.23c2.47,2.22,5.4,3.36,8.63,3.86c0,1.8-1.81,2.21-2.61,3.39c-0.41,0.6-1.24,1.02-0.92,1.9
		c0.33,0.92,1.25,1.17,2.07,1.1c3.03-0.26,5.44,1.12,7.88,2.64c2.59,1.62,5.47,2.41,8.54,2.45c0.98,0.01,2.03-0.12,2.82,0.71
		c0.59,1.87,1.57,3.77-0.43,5.43c-4.84,2.74-9.96,3.36-15.34,2.05c-0.96-0.28-1.91-0.62-2.81-1.06c-0.32-0.15-0.62-0.33-0.93-0.5
		c-0.7-0.37-1.4-0.74-2.06-1.18C255.41,123.91,253.48,122.87,252.59,120.71z"/>
	<path class="st9" d="M278,125.32c1.05-0.55,1.28-1.41,0.87-2.45c-0.33-0.86-0.33-1.74-0.26-2.63c2.23-0.99,4.44-2.1,7.02-1.49
		c5.39,4,9.18,9.05,10.19,15.85c0.49,3.3,0.53,6.6-0.74,9.78c-2.61-1.72-5.13-3.57-8.24-4.4c-1.03-0.27-1.92-0.4-2.81,0.24
		c-0.8,0.02-0.92-0.61-1.01-1.15c-0.69-4.38-2.4-8.35-4.67-12.11C278.05,126.46,277.85,125.92,278,125.32z"/>
	<path class="st10" d="M285.63,118.75c-2.34,0.48-4.55,1.6-7.02,1.49c-4.87,0.35-9.32-0.82-13.31-3.66
		c-1.53-1.09-3.19-1.63-5.1-1.38c-1,0.13-2.01,0-2.84-0.63c-0.97-0.74-1.48-1.57-0.3-2.61c1.36-1.19,2.68-2.43,4.02-3.65
		c-0.1-1.19-0.93-2.4,0.05-3.58c2.12,0.9,4.12,0.58,6.06-0.55c0.24,1.7-1.21,2.64-1.81,3.96c-0.51,1.12-1.15,2.29,0.92,2.42
		c0.74,0.02,1.49,0.02,2.19,0.24c2.63,0.82,4.82,0.32,6.52-1.97c0.37-0.5,0.89-1.02,1.67-0.66c1.83,1.6,4.18,1.91,6.4,2.55
		c2.55,0.73,5.17,1.33,7.09,3.39c1.02,1.1,1.36,2.08-0.46,2.78C288.31,117.42,286.98,118.12,285.63,118.75z"/>
	<path class="st11" d="M306.15,180.79c1.94-1.61,1.02-4.08,1.82-6.04c12.59,8.01,18.74,24.28,14.1,37.28
		c-0.91-0.06-1.43-0.64-1.83-1.38c-0.71-3.17-0.09-6.43-0.87-9.63c-1.63-6.67-5.01-12.04-10.83-15.78
		C307.31,183.99,306.21,182.67,306.15,180.79z"/>
	<path class="st12" d="M261.13,104.72c-0.28,1.19,1.1,2.4-0.05,3.58c-3.98,0.51-6.79-1.69-9.51-4.1c-1.62-0.66-2.45-1.92-2.69-3.61
		c-0.23-0.32-0.47-0.65-0.7-0.97c-1.38-1.14-1.85-2.64-1.67-4.38c-0.07-1.04-0.75-2.04-0.22-3.3
		C253.19,93.97,258.57,97.69,261.13,104.72z"/>
	<path class="st13" d="M276.68,108.16c-0.31,0.26-0.69,0.48-0.91,0.8c-1.96,2.81-4.54,3.5-7.72,2.42c-0.61-0.21-1.3-0.17-1.95-0.25
		c-1.51-1.16-0.02-1.69,0.57-2.2c2.75-2.37,5.38-4.87,8.02-7.38c2.6-2.47,4.72-5.25,6.42-8.38c2.48,1.69,1.79,4,1.11,6.22
		C281.18,102.81,278.51,105.23,276.68,108.16z"/>
	<path class="st14" d="M246.51,95.24c0.56,1.46,1.11,2.92,1.67,4.38c-5.69,0.82-10.36-0.43-13.13-6.07
		c-0.73-1.49-2.01-2.72-3.24-4.33c2.72,0,5,0.02,7.29-0.01c0.88-0.01,1.27,0.69,1.83,1.14C242.84,91.91,244.38,93.91,246.51,95.24z"
		/>
	<path class="st12" d="M281.1,93.17c-0.22,2.56-1.77,4.42-3.42,6.15c-3.53,3.71-7.09,7.39-11.24,10.43
		c-0.58,0.42-0.79,0.79-0.35,1.39c-2.14,0.12-2.45-1.01-1.62-2.61c0.79-1.51,1.8-2.9,2.71-4.35c3.18-3.56,6.18-7.32,10.33-9.82
		C278.55,93.73,279.51,92.32,281.1,93.17z"/>
	<path class="st15" d="M320.64,210.5c0.47,0.51,0.95,1.02,1.42,1.53c1.71,3.25,3.07,6.61,3.5,10.31c0.19,1.62,1.88,2.5,2.34,4.03
		c0.45,1.51,1.35,3.3-1.61,2.88c-1-0.14-1.26,0.45-1.51,1.22c-0.42,1.26-0.91,2.49-1.37,3.74c-0.81-0.63-1.18-1.5-1.36-2.47
		c-0.74-0.77-0.64-1.71-0.41-2.59c1.4-5.33,0.53-10.39-1.74-15.31c-0.24-0.53-0.39-1.1-0.41-1.69
		C319.57,211.38,319.65,210.62,320.64,210.5z"/>
	<path class="st16" d="M213.16,67.59c3.16,0.72,6.13,0.9,8.34,3.58c2.36,2.88,5.11,5.43,7.77,8.21
		C222.78,79.1,221.3,78.01,213.16,67.59z"/>
	<path class="st17" d="M238.13,88.03c-4.28,0.54-8.11,0.4-10.87-3.77c-1.18-1.79-3.27-2.98-4.75-4.63
		C229.42,79.51,234.1,83.1,238.13,88.03z"/>
	<path class="st7" d="M223.23,204.63c-1.16,10.07-8.1,17.39-19.06,20.11c-0.77-0.27-1.09-0.72-0.63-1.5
		c4.31-1.12,8.3-2.83,11.48-6.09c3.5-3.57,5.45-7.86,6.09-12.78C221.9,203.88,222.59,204.08,223.23,204.63z"/>
	<path class="st18" d="M248.89,100.59c0.9,1.2,1.79,2.41,2.69,3.61c-0.05,0.07-0.09,0.18-0.15,0.19c-3.36,0.71-3.75,3.12-3.42,5.95
		c-2.33-3.03-4.66-6.07-6.99-9.1c0.58-1.45,1.7-0.62,2.62-0.62C245.39,100.61,247.14,100.6,248.89,100.59z"/>
	<path class="st19" d="M208.25,59.01c2.95,2.67,5.91,5.34,9.08,8.21C212.08,66.77,210.87,65.72,208.25,59.01z"/>
	<path class="st20" d="M206.85,202.54c-0.74-0.08-1.47-0.16-2.21-0.25c-0.31-1.5-1.04-3.08,0.82-4.15c0.41-0.26,0.78-0.22,1.12,0.14
		C209.12,199.54,206.98,201.11,206.85,202.54z"/>
	<path class="st21" d="M223.23,204.63c-0.7-0.09-1.4-0.18-2.11-0.26c-0.32-1.46-0.89-2.96,0.56-4.19c0.33-0.25,0.63-0.21,0.88,0.11
		C224.63,200.93,224.75,201.7,223.23,204.63z"/>
	<path class="st22" d="M184.69,199.8c-1.58,0.26-2.16-0.76-2.55-2c1.09-0.35-0.42-2.67,1.69-2.25c0.38-0.21,0.75-0.22,1.09,0.08
		C186.5,197.11,185.93,198.47,184.69,199.8z"/>
	<path class="st23" d="M201.06,201.81c-0.64-0.03-1.27-0.06-1.91-0.1c-0.38-1.57-1.33-3.3,1.12-4.11c0.42-0.3,0.82-0.31,1.22,0.05
		C202.62,199.17,202.16,200.52,201.06,201.81z"/>
	<path class="st24" d="M218.12,203.85c-0.86,0.15-1.67,0.07-2.34-0.57c-0.28-1.32-0.32-2.6,0.7-3.67c0.43-0.29,0.83-0.22,1.23,0.07
		C220.33,200.83,218.47,202.41,218.12,203.85z"/>
	<path class="st25" d="M179.45,198.92c-0.88,0.48-1.64,0.05-2.42-0.32c0.01-1.4-1.17-3.12,1.07-3.9c0.33-0.17,0.61-0.05,0.87,0.15
		C181.67,195.9,179.54,197.53,179.45,198.92z"/>
	<path class="st26" d="M212.53,203.18c-0.82,0.04-1.68,0.24-2.37-0.43c-0.2-1.36-0.47-2.74,0.82-3.77c0.34-0.12,0.67-0.1,0.97,0.11
		c1.28,0,1.61,0.3,1.24,1.77C213.01,201.62,212.76,202.4,212.53,203.18z"/>
	<path class="st27" d="M190,200.67c-0.64-0.38-1.51-0.39-1.9-1.18c0.11-1.29,0.69-3.15,1.05-3.36c0.43-0.29,0.83-0.32,1.18,0.12
		C191.95,197.15,191.83,198.74,190,200.67z"/>
	<path class="st28" d="M195.56,201.24c-1.11,0.1-1.96-0.28-2.41-1.36c-0.51-0.82,0.72-1.33,0.37-2.12c0.36-1.4,1.25-1,2.13-0.62
		c0.35,0.27,1.69-0.51,0.97,0.9C196.11,199.05,196.66,200.42,195.56,201.24z"/>
	<path class="st29" d="M268.59,402.49c0,0-0.04-0.05-0.04-0.05c-0.23,0.83-0.93,0.9-1.58,0.88c-3.96-0.09-7.92,0.27-11.88-0.21
		c0-0.59,0.44-0.77,0.88-0.94c3.88-0.49,7.79-0.05,11.69-0.32C268.09,401.82,268.48,401.99,268.59,402.49z"/>
	<path class="st30" d="M250.64,344.07c0.79,1.31,1.44,2.68,1.84,4.17c-0.67,0.49-0.03,1.51-0.79,1.97c0.28-2.06-1.12-3.65-1.55-5.51
		C250.26,344.45,250.3,344.14,250.64,344.07z"/>
	<path class="st2" d="M235.97,397.69c-0.13-0.32-0.26-0.64-0.39-0.96c0.11-0.67,0.52-1.12,1.05-1.5c0.47-0.1,0.62,0.19,0.7,0.57
		C237.23,396.68,236.98,397.46,235.97,397.69z"/>
	<path class="st31" d="M243.64,100.63c-0.84,0.35-1.92-0.33-2.62,0.62c-0.5-0.35-1.08-0.84,0.01-1
		C241.88,100.11,242.84,100.04,243.64,100.63z"/>
	<path class="st32" d="M289.62,299.13c-0.68-0.26-1.48-0.26-2.01-0.87c0.87-0.08,1.73-0.14,2.49,0.41
		C289.94,298.82,289.78,298.98,289.62,299.13z"/>
	<path class="st12" d="M278.49,286.7c0.24,3.08-0.24,6.14-0.33,9.22c-0.03,0.87-0.26,1.35-1.3,1.31c-2.14-0.08-4.28-0.02-6.68-0.02
		c1.45-3.56,2.13-7.06,2.94-10.52C274.91,286.69,276.7,286.69,278.49,286.7z"/>
	<path class="st33" d="M250.64,344.07c-0.17,0.21-0.34,0.41-0.51,0.62c-0.88-1.69-1.59-3.44-1.74-5.37
		C249.59,340.72,250.13,342.39,250.64,344.07z"/>
	<path class="st0" d="M306.15,180.79c0.81,1.3,1.61,2.6,2.42,3.9c3.34,3.92,4.07,8.65,3.99,13.54c-0.03,1.8-0.45,3.63-0.99,5.4
		c-1.64,4.52-2.67,5.02-7.19,3.49c-0.71-0.24-1.41-0.48-2.07-0.81c-6.89-3.22-12.56-7.93-17.16-13.97
		c-0.66-0.87-1.21-1.77-1.45-2.84c-2.83-4.7-4.15-9.79-4.16-15.37c-0.73,2-1.47,4.01-2.2,6.01c-0.48,1.32-0.97,1.58-1.88,0.22
		c-1.19-1.77-1.77-3.7-1.97-5.79c-0.73-5.44,0.05-10.88,0.13-16.31c-0.17-0.88-0.21-1.77-0.02-2.66c0.09-0.32-0.08,0.07,0.05-0.24
		c0.58-1.39,0.45-3.57,2.24-3.78c1.9-0.22,3.5,1.1,4.6,2.76c1.39,10.1,9,17.12,18.06,18.04c0.94,0.1,1.7,0.47,2.35,1.22
		C302.83,175.86,304.76,178.13,306.15,180.79z"/>
	<path class="st6" d="M280.47,154.34c-0.23-0.1-0.47-0.17-0.67-0.29c-4.02-2.46-4.02-2.46-5.76,1.7c-1.28,0.63-1.77-0.44-2.42-1.14
		c-1.48-1.6-2.35-3.62-3.59-5.38c-0.99-2.33-1.98-4.66-2.98-6.99c-0.94-0.42-1.24-1.3-1.49-2.18c-1.06-3.68-1.86-7.4-1.82-11.26
		c0.01-0.68-0.3-1.58,0.86-1.71c5.34,1.2,10.48,0.76,15.39-1.77c3.37,4.42,4.85,9.61,6.03,14.91
		C281.39,144.57,280.08,149.24,280.47,154.34z"/>
	<path class="st34" d="M252.59,120.71c1.66,1.34,3.32,2.67,4.98,4.01c0.22,1.23,0.74,2.41,0.74,3.69c-0.23,0.94-0.83,1.49-1.76,1.7
		c-2.01-0.15-3.7-1.27-5.57-1.86c-1.22-0.57-2.53-0.96-3.68-1.69c-0.6-0.49-1.23-0.97-0.77-1.89
		C247.71,122.07,249.78,120.82,252.59,120.71z"/>
	<path class="st35" d="M262.61,127.09c-0.54,5.27,0.78,10.23,2.45,15.14c-1.14,0.92-1.04,2.57-2.17,3.6c-2.99-2.6-2.9-6.22-3.2-9.67
		c-0.19-2.13-0.09-4.28-0.12-6.43c-0.53-0.56-0.27-1.21-0.19-1.83c0.1-0.64,0.15-1.3,0.75-1.72
		C260.95,126.49,261.78,126.79,262.61,127.09z"/>
	<path class="st36" d="M246.52,124.66c-0.03,0.78,0.7,1.02,1.07,1.51c-1.41,2.04-1.16,4.21,0.07,6.09c2.18,3.36,4.35,4.29,6.84,0.69
		c0.43-0.58,0.86-1.17,1.55-1.48c0.38-0.1,0.72-0.05,1.02,0.22c-0.66,1.44-1.34,2.85-2.68,3.83c-2.48,1.81-4.41,1.7-6.64-0.44
		C244.79,132.24,244.32,128.29,246.52,124.66z"/>
	<path class="st37" d="M208.57,151.7c-1.88-0.82-2.7-2.49-1.84-4.05c0.79-1.44,2.2-1.86,3.63-1.22c1.94,0.87,2.3,2.41,1.19,4.25
		C210.46,150.75,208.76,149.01,208.57,151.7z"/>
	<path class="st38" d="M214.61,151.21c0.47-1.85,1.77-2.4,3.36-1.7c1.41,0.62,2.18,2,1.36,3.48c-0.85,1.54-2.2,2.25-3.84,0.8
		c0.17-0.83,1.05-0.92,1.57-1.39C216.61,151.11,215.34,151.73,214.61,151.21z"/>
	<path class="st39" d="M268.04,149.22c1.33,1.63,2.68,3.24,3.97,4.91c0.56,0.72,1.03,1.49,2.04,1.62c-0.01,0.86,0.19,1.75-0.44,2.5
		C271.18,155.6,269.07,152.74,268.04,149.22z"/>
	<path class="st5" d="M300.61,296.35c7.79,0.33,12.98,4.88,17.25,10.78c5.81,8.02,9.52,17,11.91,26.59
		c2.58,10.36,3.04,20.9,3.38,31.5c0.19,6.03,1.01,12.06,2.32,18.01c0.73,3.33,1.53,6.6,2.86,9.74c-7.01-3.04-11.77-8.52-15.77-14.73
		c-1.79-2.78-3.11-5.87-4.87-8.68c-3.77-6.01-4.15-12.64-3.89-19.43c0.42-11.08,1.92-22.17-0.21-33.22
		C311.94,308.4,308.51,300.95,300.61,296.35z"/>
	<path class="st40" d="M283.7,189.49c4.87,6.91,10.95,12.43,18.52,16.26c0.56,0.9,0.14,1.76-0.1,2.63
		c-2.12,7.71-0.32,14.36,5.31,20.03c0.78,0.79,1.88,1.44,1.76,2.82c-0.58,1.91-1.33,2.95-3.85,2.69
		c-7.61-0.79-13.61-4.35-18.74-9.73c-4.55-5.9-7.14-12.49-7.01-20.02C279.67,198.92,281.04,194.02,283.7,189.49z"/>
	<path class="st16" d="M309.18,231.22c-2.4-2.61-5.08-4.98-6.64-8.3c-2.68-5.7-2.39-11.41-0.33-17.18c0.71,0.22,1.42,0.43,2.12,0.66
		c4.57,1.54,4.69,1.5,6.61-2.75c4.53,1.24,7.21,4.48,9.12,8.52c0.73,2.54,1.95,4.88,2.59,7.49c1,4.15-0.28,8.05-0.59,12.06
		c-1.43,0.46-0.72,2.95-2.34,2.85c-2.11-0.12-4.25-0.55-6.24-1.42C312.04,232.53,310.61,231.87,309.18,231.22z"/>
	<path class="st13" d="M202.1,222.59c0.75,1.19,0.81,2.73,1.93,3.73c0.63,0.93-0.02,1.5-0.56,2.13c-1.11,1.31-2.48,2.46-2.9,4.25
		c-0.28,0.64-0.86,0.97-1.37,1.36c-0.8,0.43-1.5,0.46-1.97-0.47c0.29-1.8,0.07-3.67,0.81-5.4c1.94-0.1,1.12-1.51,0.97-2.35
		C198.39,222.23,198.41,222.16,202.1,222.59z"/>
	<path class="st13" d="M194.16,230.09c0.05-0.09,0.06-0.18,0.01-0.28c0.63-0.64,0.02-2.2,1.58-2.16c-0.25,1.5,0.16,3.1-0.64,4.53
		C194.79,231.49,194.48,230.79,194.16,230.09z"/>
	<path class="st4" d="M320.06,212.18c-2.55-3.37-5.28-6.54-9.12-8.52c2.06-6.68,0.56-12.92-2.38-18.97
		c6.45,3.63,9.77,9.44,11.5,16.39c0.78,3.12,0.37,6.29,0.58,9.43C320.17,210.96,320.08,211.56,320.06,212.18z"/>
	<path class="st41" d="M255.05,133.17c-2.76,3.71-6.06,3.39-8.13-0.79c-1.39-2.8-1.13-5.21,0.66-6.21c1.22,0.53,2.44,1.06,3.66,1.59
		C250.8,130.78,252.33,132.39,255.05,133.17z"/>
	<path class="st1" d="M286.97,238.71c0-0.07-0.02-0.16-0.02-0.24c0.29-1.28,0.33-2.6,0.1-3.86c0.12-0.24,0.19-0.52,0.2-0.85
		c0.07-2.41,0.64-5.02,0.41-7.41c-0.18-1.91-2.01-3.65-3.99-2.82c-1,0.42-1.7,1.32-1.4,2.46c0.16,0.61,0.72,1.18,1.37,1.4
		c-0.02,0.21-0.03,0.43-0.06,0.64c-0.04,0.46-0.08,0.92-0.11,1.38c-4.85-3.49-10.58-4.13-16.42-5.28c-4.6-0.91-9.94,1.31-11.07,6.29
		c-1.02,4.46,1.35,10.1,6.29,11.07c2.19,0.43,4.38,0.86,6.57,1.3c0.93,0.18,1.87,0.35,2.79,0.57c1.37,0.33,1.34,0.58,0.26-0.33
		c3.26,2.74,8.2,3.61,11.68,0.94c0.12,0.14,0.25,0.28,0.37,0.42c1.08,1.25,3.6,0.3,3.41-1.41
		C287.19,241.56,287.06,240.14,286.97,238.71z"/>
	<path class="st1" d="M311.94,288.12c-0.18-0.69-0.34-1.39-0.74-2.01c0.52-3.96,0.32-7.94,0.41-11.91c0.8-2.71,0.17-5.28-0.71-7.84
		c-0.73-0.9-1.8-0.75-2.76-0.88c-7.14-0.94-12.59-4.36-16.07-10.78c-1.16-2.14-1.81-4.45-2.66-6.7c-0.35-0.93-0.37-2.2-1.78-2.35
		c-0.29,0.17-0.58,0.37-0.71,0.67c-2.55,5.6-4.7,11.32-5.57,17.45c-0.8,5.65-1.09,11.35-1.57,17.03c0.01-0.18,0.02-0.36,0.03-0.55
		c0.34-6.52,0.75-13.04,2.03-19.45c0.99-4.97,2.93-9.65,4.79-14.34c0.41-1.04,1.16-2.07,0.59-3.31c-0.92-0.78-2.04-0.66-3.1-0.63
		c-4.95,0.15-9.74-0.83-14.55-1.89c-1.43-0.31-2.83-0.69-4.22-1.11c0.38-0.4,0.73-0.84,1.04-1.32c6.11,1.77,12.35,2.89,18.68,3.58
		c0.83,0.09,1.67,0.05,2.28-0.69c0.46-0.87,0.28-1.79,0.12-2.68c-0.81-4.61-0.78-9.25-0.4-13.9c-0.17-1.39-1.09-2.4-1.79-3.51
		c-5.85-9.26-6.62-18.89-2.12-28.91c0.41-0.9,0.94-1.77,0.89-2.81c-0.05-0.59-0.25-1.15-0.53-1.66c-2.03-3.57-2.94-7.41-2.77-11.51
		c0.02-0.42-0.02-0.84-0.11-1.24c-0.11-0.49-0.23-1.08-0.8-1.14c-0.53-0.06-0.91,0.39-1.12,0.86c-0.55,1.22-0.79,2.55-1.31,3.78
		c-0.22,0.52-0.34,1.23-1.07,1.21c-0.69-0.01-0.83-0.72-1.13-1.2c-0.74-1.2-0.55-2.8-1.69-3.82c-3.78-0.48-7.58-0.05-11.37-0.19
		c-3.33-0.12-6.53,0.05-9.56,1.55c-0.32,1.42,0.6,2.33,1.32,3.34c4.52,6.25,5.87,13.26,4.98,20.81c-0.14,1.2-0.61,2.13-1.43,3.05
		c-5,5.57-9.72,11.37-14.21,17.34c-2.61,2.39-4.65,5.34-6.11,8.63c-4.03,5.63-7.55,11.53-10.75,17.61c-0.54-0.05-1.08-0.08-1.62-0.1
		c-0.12-0.04-0.24-0.07-0.36-0.1c-0.12-0.08-0.23-0.16-0.38-0.23c-8.12-3.89-13.7-10.48-18.8-17.58c0.04-0.13,0.03-0.28-0.03-0.4
		c-0.21-0.39-0.41-0.78-0.62-1.18c-0.25-0.48-0.87-0.19-0.92,0.25c-0.08,0.65-0.82,1.16-1.22,1.64c-0.35,0.42-0.67,0.87-0.97,1.33
		c-0.31,0.48-0.64,0.97-0.89,1.48c-0.69,0.7-1.4,1.35-2.19,1.95c-0.31,0.24-0.34,0.8,0.12,0.91c0.91,0.2,1.78,0.51,2.6,0.98
		c0.51,0.29,0.98,0.63,1.5,0.88c0.01,0.02,0.03,0.03,0.04,0.05c0.1,0.04,0.2,0.07,0.3,0.1c0.02,0.01,0.04,0.02,0.06,0.03
		c0.02,0.01,0.03,0,0.04,0.01c0.86,0.24,1.8,0.36,2.15,1.44c5.22,3.79,10.09,8.02,15.15,12.26c0.3,0.65,0.65,1.28,0.92,1.91
		c0.37,0.87,0.67,1.78,1,2.66c-0.63,1.33-1.24,2.67-1.84,4.02c-3.03,3.66-4.95,8.38-5.79,13.27c-0.07,0-0.14-0.02-0.22-0.01
		c-2.75,5.84-3.04,12.04-2.71,18.33c-0.02,0.34-0.03,0.68-0.04,1.02c-0.6,4.85,1.05,10.91,2.49,14.23
		c3.48,8.08,11.25,12.81,20,11.26c0.19-0.03,0.37-0.08,0.55-0.12c3.29,1.43,7.06,2.04,10.45,2.7c6.38,1.24,12.85,1.92,19.35,2.11
		c1.22,0.03,2.24-0.24,3.07-0.72c4.29,0.78,8.6,1.39,12.93,1.57c7.29,0.3,14.58-0.3,18.96-5.75c0.33-0.29,0.63-0.62,0.9-1
		c0.13-0.19,0.23-0.36,0.35-0.54c0.22-0.19,0.43-0.4,0.62-0.65c1.78-2.87,3.3-5.87,4.68-8.94c0.13-0.13,0.26-0.27,0.38-0.39
		c2.4-2.57,3.29-5.92,3.85-9.3c0.27-0.14,0.49-0.33,0.63-0.62c0.06-0.22,0.09-0.43,0.07-0.66c-0.19-0.72-0.15-1.4,0.34-2
		c0.07-0.2,0.11-0.4,0.1-0.61c-0.3-1.01,0.23-1.83,0.62-2.69C312.06,289.03,312.05,288.57,311.94,288.12z M272.79,280.53
		c-0.1-4.28,0.09-8.57-0.17-12.86C272.92,271.93,272.99,276.22,272.79,280.53z M269.09,246.12c1.57,6.06,2.64,12.17,3.25,18.31
		c-0.78-6.29-1.79-12.52-3.41-18.63C268.99,245.8,269.03,245.92,269.09,246.12z M280.07,293.77c0.05,0.8-0.31,1.69-0.31,2.76
		c-0.06,0.01-0.11,0.01-0.17,0.03c-0.77,1.03-0.16,2.07,0.02,3.09c0.5,2.77,0.07,3.55-2.55,4.45c-0.71,0.24-1.43,0.39-2.16,0.53
		c-5.33,1.03-7.63-1.55-5.93-6.65c0.26-0.77,0.67-1.54,0.43-2.32c1.14-2.72,2.1-5.92,2.03-8.77c0.17-0.08,0.33-0.21,0.48-0.41
		c0.31-0.85,0.53-1.71,0.67-2.58c-0.02,0.26-0.03,0.52-0.05,0.78c-0.07,0.85-0.08,1.67,0.61,2.31c1.78,0.72,3.57,0.71,5.36-0.01
		c0.46-0.79,0.74-1.62,0.91-2.47c-0.13,1.24-0.19,2.49,0.38,3.67c0.12,0.11,0.24,0.2,0.37,0.29
		C280.46,290.21,279.96,292,280.07,293.77z"/>
	<path d="M261.38,127.4c-0.02,0.17-0.08,0.3-0.14,0.44c-0.03,0.07-0.07,0.13-0.11,0.2c-0.09,0.13-0.2,0.25-0.34,0.33
		c-0.08,0.07-0.12,0.15-0.15,0.22c-0.23,0.21-0.49,0.4-0.75,0.57c0.02-0.03,0.03-0.06,0.04-0.09c1.08-1.23,1.65-2.64,0.43-3.94
		c-0.35-0.37-0.95,0.02-0.83,0.48c0.21,0.84,0.1,1.84-0.32,2.64c0.01-0.06,0.04-0.11,0.05-0.17c0.27-1.25-0.18-2.45-1.11-3.3
		c-0.34-0.32-0.99-0.01-0.83,0.48c0.45,1.36,1.14,4.33-1.18,4.3c-0.06,0-0.11,0.02-0.16,0.03c-1.44-0.56-2.88-1.12-4.32-1.68
		c-0.21-0.43-0.99-0.17-0.91,0.4c0.01,0.05,0.02,0.11,0.02,0.16c-0.46,1.51-0.72,3.35,0.84,4.32c1,0.63,2.29,0.81,3.39,0.43
		c0.07,0.01,0.15,0.01,0.24-0.03c0.97-0.4,1.91-0.85,2.6-1.58c0.79-0.3,1.5-0.87,2.2-1.39c0.95-0.69,2.11-1.33,2.3-2.58
		C262.43,127.04,261.51,126.76,261.38,127.4z"/>
</g>
<g id="Layer_4">
	<g class="st42">
		<path class="st43" d="M178.97,194.85c-0.29-0.05-0.58-0.1-0.87-0.15c-0.92-2.01,0.89-3.37,1.04-5.29
			C181.08,192.05,181,193.4,178.97,194.85z"/>
		<path class="st44" d="M178.98,194.16c-0.13-0.02-0.27-0.05-0.4-0.07c-0.43-0.93,0.41-1.57,0.48-2.46
			C179.97,192.86,179.93,193.49,178.98,194.16z"/>
	</g>
	<path class="st45" d="M211.95,199.09c-0.33-0.04-0.65-0.07-0.98-0.11c-1.13-1.96,0.67-3.33,0.89-5.13
		C213.63,195.74,213.62,197.36,211.95,199.09z"/>
	<path class="st45" d="M201.48,197.65c-0.41-0.02-0.81-0.03-1.22-0.05c-1.21-2.06,0.81-3.45,0.95-5.54
		C202.81,194.11,203.06,195.86,201.48,197.65z"/>
	<path class="st45" d="M194.21,196.65c-0.59-1.89,0.73-3.21,1.34-5.24c1.23,2.17,1.81,3.81,0.01,5.43
		C195.08,196.94,194.6,197.11,194.21,196.65z"/>
	<path class="st45" d="M217.71,199.68c-0.41-0.02-0.82-0.05-1.23-0.07c-1.26-2.01,0.79-3.22,1.09-4.9
		C218.89,196.39,219.12,198.02,217.71,199.68z"/>
	<path class="st45" d="M206.58,198.28c-0.37-0.05-0.75-0.09-1.12-0.14c-1.14-1.94,0.93-3.12,1.17-4.78
		C207.66,195.02,208.56,196.65,206.58,198.28z"/>
	<path class="st45" d="M222.57,200.29c-0.29-0.04-0.59-0.08-0.88-0.11c-0.8-1.91,0.62-3.25,1.18-5.16
		C224.2,197.1,224.89,198.79,222.57,200.29z"/>
	<g class="st42">
		<path class="st43" d="M184.92,195.63c-0.36-0.03-0.73-0.06-1.09-0.08c-1.46-2.06,0.6-3.45,0.91-5.72
			C185.91,192.11,186.55,193.85,184.92,195.63z"/>
		<path class="st44" d="M184.5,194.77c-0.13-0.02-0.27-0.05-0.4-0.07c-0.43-0.93,0.41-1.57,0.48-2.46
			C185.49,193.47,185.45,194.1,184.5,194.77z"/>
	</g>
	<path class="st46" d="M195.27,196.04c-0.13-0.02-0.27-0.05-0.4-0.07c-0.43-0.93,0.41-1.57,0.48-2.46
		C196.26,194.74,196.22,195.37,195.27,196.04z"/>
	<path class="st46" d="M201.11,197.31c-0.13-0.02-0.27-0.05-0.4-0.07c-0.43-0.93,0.41-1.57,0.48-2.46
		C202.09,196,202.05,196.63,201.11,197.31z"/>
	<g class="st42">
		<path class="st43" d="M190.33,196.25c-0.4-0.04-0.79-0.08-1.19-0.12c-0.95-1.98,0.54-3.42,1.08-5.35
			C191.61,192.78,192.01,194.5,190.33,196.25z"/>
		<path class="st44" d="M190.03,195.12c-0.13-0.02-0.27-0.05-0.4-0.07c-0.43-0.93,0.41-1.57,0.48-2.46
			C191.01,193.81,190.97,194.44,190.03,195.12z"/>
	</g>
</g>
<g id="Layer_3">
	<path class="st3" d="M238.06,393.19c1.19-4.16,1.25-8.5,1.88-12.74c0.56-3.77,0.66-7.61,1.2-11.39c1.14-7.91-0.6-15.52-2.29-23.13
		c-1.01-4.52-2.34-8.96-3.45-13.46c-0.42-1.69-1.28-2.93-2.6-4.07c-5.07-4.34-9.78-9-13.05-14.91c-0.3-0.54-1.49-1.21-0.23-2.02
		c0.87-0.33,1.64,0.06,2.4,0.37c7.95,3.26,16.16,5.65,24.56,7.38c0.85,0.33,1.76,0.32,2.66,0.37c2.2,0.46,4.47,0.34,6.69,0.68
		c1.68,0.41,3.38,0.22,5.08,0.17c7.41-0.24,14.81,0.22,22.21,0.48c4.17,0.15,8.31-0.28,12.43-0.9c0.71-0.11,1.49-0.44,2.03,0.4
		c-3.03,5.3-7.78,8.79-12.74,12.03c-3.21,2.09-6.58,3.9-10.15,5.31c-1.34,0.53-1.98,1.28-2.26,2.83
		c-1.95,10.62-3.94,21.23-5.2,31.95c-0.71,6.05-0.22,12.13,0.59,18.17c0.13,0.99,0.2,1.99,0.29,2.98c0.34,0.54,0.3,0.96-0.38,1.15
		c-3.69-2.68-6.96-1.43-10.1,1.08c-0.41-0.09-0.71-0.26-0.55-0.76c0.61-0.88,1.2-1.71,1.23-2.9c0.3-9.57,0.83-19.14-0.19-28.68
		c-0.59-5.52-3.46-10.33-5.61-15.35c-1.36-0.97-1.28-2.72-2.13-3.97c-0.5-1.08-0.73-2.27-1.39-3.29c0.72,1.19,0.93,2.6,1.61,3.8
		c0.7,1.74,1.69,3.42,1.12,5.42c-1.67,12.9-3.34,25.8-5,38.71c-0.25,1.96-0.4,3.89,0.27,5.86c0.49,1.46,0.64,3.08,0.73,4.64
		c0.17,3.07-0.58,3.81-3.62,3.8c-2.82-0.01-5.64-0.05-8.47-0.08c0.45-1.45,1.7-1,2.68-1.09c2.3-0.2,4.64,0.32,6.92-0.33
		c1.21-1.59,0.97-6.53-0.41-7.74c-0.89-0.78-2-0.57-3.06-0.57c-1.08,0-2.04,0.63-3.13,0.59
		C238.21,393.86,237.88,393.69,238.06,393.19z"/>
	<path class="st13" d="M287.14,243.29c0.08-0.07,0.17-0.1,0.28-0.07c0.2,0.81,0.39,1.62,0.59,2.42c-4.28,8.41-6.4,17.38-6.91,26.75
		c-0.29,5.3-1.01,10.58-0.94,15.9c1.31,2.91,0.26,5.71-0.44,8.52c-0.01,0.08-0.03,0.17-0.01,0.25c1.4,6.45,0.04,8.2-6.6,8.49
		c-4.26,0.19-6.31-2.38-5.16-6.5c0.35-1.27,0.78-2.51,1.17-3.77c1.38-2.74,1.89-5.72,2.31-8.71c1.64-11.42,0.59-22.72-1.66-33.95
		c-0.5-2.52-1.16-5.01-1.71-7.51c-0.13-0.6-0.55-1.43,0.48-1.6c0.8-0.13,0.83,0.69,0.95,1.2c1.65,6.44,2.84,12.97,3.58,19.58
		c0.83,7.47,0.73,14.93,0.04,22.4c0.73,2.74-0.46,5.21-1.27,7.66c-0.62,1.89-0.22,2.24,1.62,2.2c3.65-0.07,3.55-0.01,4.21-3.53
		c0.39-2.1-0.35-4.33,0.82-6.31c0.79-7.11,1.03-14.26,1.84-21.38c0.79-6.96,3.31-13.33,5.89-19.72
		C286.53,244.83,286.83,244.06,287.14,243.29z"/>
	<path class="st13" d="M234.87,394.62c1-0.89,1.77-1.94,2.23-3.21c1.41-0.97,2.99-1.42,4.68-1.6c5.03-0.54,6.53,0.35,7.44,5.24
		c0.59,3.18,1.94,6.53-0.45,9.63c-5.73-0.31-11.5,0.46-17.22-0.43c-0.86-2.55,1.05-4.44,1.57-6.66
		C233.71,396.6,234.29,395.61,234.87,394.62z"/>
	<path class="st13" d="M253.65,397.88c0.72-1.05,1.44-2.09,2.15-3.14c2.76-4.11,6.81-4.99,11.35-4.32c1.67,0.25,3.48,0.64,3.86,2.82
		c1.19,3.82,1.41,7.76,1.42,11.73c-6.45,0.06-12.89,0.13-19.34,0.19C249.3,402.43,253.34,400.3,253.65,397.88z"/>
	<circle class="st47" cx="209.38" cy="149.38" r="2.44"/>
	<circle class="st47" cx="216.79" cy="151.89" r="2.44"/>
</g>
</svg>
